<?xml version="1.0" standalone="no"?>
<!DOCTYPE svg PUBLIC "-//W3C//DTD SVG 20010904//EN"
 "http://www.w3.org/TR/2001/REC-SVG-20010904/DTD/svg10.dtd">
<svg version="1.0" xmlns="http://www.w3.org/2000/svg"
 width="300.000000pt" height="300.000000pt" viewBox="0 0 300.000000 300.000000"
 preserveAspectRatio="xMidYMid meet">
<metadata>
Created by potrace 1.10, written by Peter Selinger 2001-2011
</metadata>
<g transform="translate(0.000000,300.000000) scale(0.100000,-0.100000)"
fill="#000000" stroke="none">
<path d="M2 2645 c3 -311 5 -354 18 -349 8 4 23 7 32 8 10 1 21 5 24 9 13 12
34 7 34 -8 0 -8 -7 -15 -15 -15 -8 0 -15 -5 -15 -11 0 -7 -10 -9 -24 -5 -38
10 -56 -2 -56 -38 l0 -32 93 13 c82 12 148 11 267 -2 19 -2 80 -7 135 -10 55
-3 114 -8 130 -10 31 -5 321 -51 365 -58 14 -2 3 -5 -25 -6 -27 0 -88 6 -135
14 -113 20 -312 42 -547 61 -113 9 -283 -13 -283 -36 0 -16 7 -16 92 -4 110
16 188 18 188 5 0 -5 -21 -12 -47 -15 -199 -23 -233 -29 -233 -42 0 -10 16
-14 53 -16 l52 -1 -49 -6 c-27 -3 -51 -12 -54 -18 -5 -16 21 -16 103 -3 33 5
87 11 120 15 33 3 77 8 98 11 20 3 37 2 37 -3 0 -5 -71 -17 -157 -27 -187 -20
-203 -23 -203 -36 0 -15 65 -12 212 10 73 11 165 20 203 20 93 0 176 -11 169
-22 -3 -4 -10 -5 -16 -2 -26 16 -420 -4 -452 -23 -4 -3 9 -14 30 -24 36 -17
27 -18 -26 -3 -11 3 -20 10 -20 15 0 5 -16 9 -36 9 -20 0 -33 -4 -29 -10 3 -5
12 -7 19 -4 7 3 16 -2 19 -10 5 -13 1 -13 -34 -1 l-39 14 0 -87 0 -88 45 -12
c25 -7 64 -13 88 -13 29 -2 34 -3 15 -6 -16 -2 -28 -8 -28 -13 0 -10 56 -30
86 -30 14 0 23 -5 21 -12 -1 -8 14 -15 38 -19 44 -7 38 -12 -10 -9 -16 1 -34
5 -40 10 -5 4 -24 11 -42 15 -18 3 -42 15 -55 25 -26 20 -105 46 -114 37 -12
-12 8 -26 63 -43 31 -10 51 -20 45 -22 -7 -2 -33 3 -59 12 -56 19 -53 19 -53
2 0 -8 19 -21 43 -31 39 -16 76 -20 272 -29 39 -2 82 -8 97 -15 16 -6 41 -8
58 -5 39 8 40 -12 1 -21 -18 -4 -49 1 -80 12 -41 14 -55 15 -71 6 -15 -10 -28
-9 -62 3 -33 11 -63 14 -126 8 -45 -3 -85 -10 -87 -15 -6 -9 79 -50 232 -114
91 -37 114 -55 72 -55 -38 0 -301 122 -307 142 -2 10 -13 18 -24 18 -16 0 -19
-6 -16 -32 2 -27 9 -34 35 -42 45 -12 43 -30 -2 -22 l-35 7 0 -46 0 -45 49 0
c51 0 75 -15 50 -31 -8 -5 -33 -9 -56 -9 -40 0 -43 -2 -43 -26 0 -25 2 -26 48
-22 26 1 49 -1 52 -7 3 -6 -17 -11 -47 -13 l-53 -3 0 -80 c0 -73 2 -80 22 -88
13 -4 46 -5 73 -2 45 6 48 8 30 18 -19 12 -18 12 8 13 15 0 42 -7 59 -16 21
-11 43 -14 70 -10 35 6 39 4 36 -13 -2 -11 6 -27 17 -35 11 -9 14 -16 8 -16
-7 0 -13 -5 -13 -11 0 -8 4 -8 15 1 11 9 20 8 43 -5 24 -14 37 -16 75 -7 26 5
47 6 47 1 0 -4 -16 -11 -37 -15 -34 -6 -35 -8 -17 -21 18 -13 80 -11 120 4 8
3 14 1 14 -5 0 -5 -16 -13 -36 -17 -35 -6 -36 -7 -16 -21 16 -11 31 -12 72 -4
65 12 69 12 50 -1 -12 -8 -9 -10 13 -6 15 2 27 0 27 -4 0 -8 -27 -13 -72 -12
-27 0 -21 -12 16 -32 28 -15 41 -17 85 -8 28 6 54 7 57 2 2 -4 -12 -11 -33
-15 -21 -4 -41 -12 -45 -18 -11 -16 -10 -36 2 -36 5 0 6 8 3 17 -5 13 -3 15
13 8 24 -11 79 -12 122 -3 19 5 32 4 32 -2 0 -5 -12 -12 -28 -16 -56 -12 -58
-14 -26 -35 27 -17 38 -18 84 -9 66 13 83 13 75 0 -3 -5 -16 -10 -28 -10 -12
0 -28 -4 -36 -9 -11 -7 -6 -13 18 -26 27 -14 41 -15 82 -6 62 13 69 14 69 1 0
-5 -18 -13 -40 -16 -22 -4 -40 -10 -40 -13 0 -4 16 -15 36 -25 31 -14 44 -15
91 -6 55 12 80 7 53 -10 -8 -6 -25 -10 -37 -10 -36 0 -35 -17 3 -40 32 -21 40
-22 91 -11 30 6 60 8 65 5 14 -9 -11 -24 -39 -24 -39 0 -35 -19 8 -41 42 -21
79 -22 154 -3 19 5 25 2 25 -9 0 -9 -13 -18 -30 -22 -46 -10 -45 -21 6 -51 45
-27 48 -27 108 -15 33 7 65 13 70 14 5 1 10 -3 13 -10 2 -6 -11 -14 -34 -18
-68 -11 -71 -20 -17 -54 56 -35 71 -37 144 -15 42 13 54 13 61 3 11 -18 4 -26
-31 -32 -16 -4 -30 -11 -30 -17 0 -5 27 -24 61 -41 l61 -30 68 20 c84 26 80
26 80 -3 0 -15 -11 -32 -27 -44 -19 -14 -25 -24 -18 -31 12 -12 240 -142 312
-177 l52 -26 76 23 c42 12 78 26 81 31 3 4 10 8 16 8 7 0 9 -17 6 -45 -4 -28
-1 -48 6 -53 6 -4 -7 -10 -29 -13 -22 -3 79 -7 225 -7 l265 -1 -67 27 c-65 25
-68 28 -68 60 0 22 4 32 12 30 7 -3 13 -13 13 -23 0 -19 96 -77 148 -89 24 -6
27 -4 27 19 0 14 -5 25 -12 25 -17 0 -181 81 -175 86 5 5 24 -2 130 -50 l57
-26 0 134 0 134 -42 -15 c-23 -8 -52 -12 -65 -8 -25 6 -265 118 -573 267 -180
87 -196 97 -198 123 -3 41 5 45 51 25 23 -10 98 -41 167 -70 133 -56 126 -56
238 -24 12 3 22 2 22 -3 0 -5 -25 -16 -55 -23 -31 -7 -58 -16 -60 -20 -2 -3
60 -34 138 -67 78 -34 174 -76 213 -93 l71 -33 46 18 46 18 1 408 0 408 -71
21 c-39 12 -69 23 -67 26 2 2 34 -5 71 -15 37 -11 67 -16 67 -12 0 4 -68 27
-150 51 -83 24 -148 45 -146 47 2 2 68 -14 146 -37 78 -23 143 -40 146 -37 7
7 -286 89 -300 84 -7 -3 -13 1 -13 9 0 8 7 12 16 10 110 -32 294 -76 299 -72
9 9 5 11 -148 50 -122 32 -191 54 -170 56 10 0 136 -28 217 -49 89 -23 112
-26 98 -12 -6 5 -62 21 -125 35 -146 33 -198 48 -185 52 6 2 79 -13 163 -34
84 -21 151 -33 149 -28 -2 6 -75 29 -162 52 -87 22 -160 45 -162 51 -4 10 132
-19 222 -47 64 -19 108 -23 103 -9 -4 11 -83 32 -200 52 -10 2 -21 6 -24 10
-4 4 -17 7 -29 7 -26 0 -99 29 -92 36 4 5 300 -60 334 -73 7 -3 13 2 13 10 0
11 -51 27 -200 64 -110 26 -200 47 -200 45 0 -2 9 -15 20 -29 64 -82 50 -296
-24 -360 -13 -12 -26 -20 -28 -18 -2 2 -4 -8 -3 -23 0 -33 -33 -52 -92 -52
-55 0 -119 37 -190 108 -32 33 -33 34 -15 57 30 42 83 56 124 34 46 -25 24 2
-45 54 -41 31 -81 67 -90 80 -14 21 -14 27 1 57 31 63 109 73 158 19 17 -19 7
-28 -12 -10 -5 5 -28 12 -51 16 -34 5 -46 2 -63 -15 -11 -11 -20 -28 -20 -38
1 -15 2 -15 17 3 16 20 16 20 8 0 -16 -44 -18 -58 -7 -51 7 4 12 13 12 20 0
19 33 46 56 46 33 0 45 -15 50 -63 4 -37 2 -48 -10 -53 -9 -3 -16 -10 -16 -16
0 -5 4 -7 9 -4 5 4 11 3 13 -1 1 -5 17 -18 34 -30 l32 -22 6 33 c21 109 -51
236 -132 236 -37 0 -81 -31 -94 -68 -8 -20 -18 -32 -28 -30 -25 5 -23 41 5 82
14 21 25 39 23 40 -2 1 -61 17 -133 35 -132 33 -178 50 -141 51 10 0 46 -7 80
-16 33 -9 68 -18 76 -19 8 -2 30 -8 48 -14 17 -5 32 -8 32 -5 0 2 10 -2 23
-11 21 -13 27 -13 62 5 42 21 129 27 155 10 8 -5 11 -10 6 -10 -6 0 5 -14 22
-31 41 -40 33 -50 -10 -14 -18 16 -48 34 -66 42 -37 15 -95 9 -112 -12 -9 -11
-3 -11 29 -3 56 14 89 3 133 -43 39 -41 49 -62 24 -53 -12 5 -12 -3 1 -53 9
-36 13 -77 9 -110 -3 -32 -2 -53 4 -53 6 0 10 -7 10 -16 0 -14 2 -15 17 -3 10
9 14 9 10 2 -8 -12 25 -53 41 -53 14 0 42 36 47 59 2 11 -1 21 -7 21 -7 0 -1
10 11 21 22 20 23 27 17 102 -3 45 -11 84 -17 88 -6 3 -10 9 -10 13 3 17 -2
25 -38 64 -22 23 -45 42 -52 42 -7 0 -10 3 -7 6 3 3 23 -3 44 -12 22 -9 43
-16 48 -15 4 1 78 -15 165 -35 86 -20 172 -40 191 -45 39 -9 45 -6 36 17 -3 9
-13 14 -21 10 -8 -3 -17 -1 -20 3 -2 5 -25 12 -50 16 -26 3 -72 13 -103 22
-31 8 -79 18 -107 23 -51 9 -186 40 -475 111 -91 22 -194 47 -230 55 -118 27
-190 47 -186 51 4 4 145 -26 621 -135 495 -114 600 -133 574 -108 -2 3 -78 21
-169 41 -90 19 -261 58 -379 86 -673 159 -871 202 -879 194 -3 -2 -17 15 -33
40 -36 57 -78 79 -141 73 -40 -4 -57 -12 -90 -44 -23 -21 -38 -34 -34 -27 4 7
-2 21 -13 32 -16 16 -25 18 -58 10 -61 -14 -114 -11 -135 8 -21 19 -48 26 -48
12 0 -5 -4 -9 -8 -9 -5 0 -9 7 -9 16 0 10 7 14 18 11 15 -4 17 -2 9 12 -18 35
-37 42 -101 38 -57 -3 -64 -6 -67 -25 -2 -12 -8 -22 -13 -22 -6 0 -7 9 -4 21
7 20 4 20 -87 17 l-95 -2 11 -28 c9 -25 16 -28 53 -28 24 0 43 -4 43 -10 0 -5
-18 -10 -41 -10 -37 0 -40 -2 -33 -22 4 -13 14 -33 23 -45 17 -23 37 -24 231
-2 47 5 139 9 205 9 l121 0 -4 -33 c-3 -27 -8 -33 -25 -33 -18 1 -23 -6 -25
-31 -3 -34 25 -73 53 -73 22 0 18 22 -10 53 -24 25 -24 27 -6 27 11 0 22 6 25
13 3 6 3 0 0 -15 -4 -16 -2 -28 3 -28 5 0 17 -16 26 -35 17 -36 55 -61 97 -65
42 -4 116 2 95 7 -38 9 -40 23 -2 23 41 0 47 12 17 33 -18 13 -25 12 -58 -4
-47 -25 -104 -25 -126 0 -9 10 -20 36 -23 57 -3 22 -13 47 -21 57 -10 12 -11
17 -3 17 7 0 10 4 6 9 -3 5 -1 12 5 16 5 3 10 2 10 -3 0 -10 97 -50 123 -51 9
0 43 -1 75 -2 l57 -2 -40 -9 c-54 -13 -142 -2 -183 22 -40 24 -49 25 -32 5 30
-36 204 -60 251 -34 17 9 18 13 7 27 -11 14 -10 15 7 8 11 -4 63 -17 115 -29
99 -22 106 -24 99 -31 -2 -3 -40 4 -84 15 -44 10 -87 19 -95 19 -40 -1 41 -24
385 -110 204 -51 379 -96 390 -101 67 -27 -66 1 -402 85 -208 52 -387 96 -398
98 -16 2 -21 -4 -25 -38 -3 -23 -13 -53 -23 -67 -22 -34 -4 -87 30 -87 12 0
24 -4 27 -8 6 -10 42 -9 52 1 4 4 13 2 21 -4 11 -9 13 1 13 59 0 77 -1 79 -75
109 l-30 13 35 -6 c36 -7 70 -24 70 -35 0 -4 8 -5 18 -3 15 5 17 -3 14 -79
l-3 -85 -47 -6 c-46 -6 -81 -21 -72 -29 3 -3 37 2 77 11 70 15 75 14 150 -8
43 -12 83 -23 88 -24 6 0 12 37 15 87 6 103 24 117 26 20 1 -65 2 -69 32 -86
17 -10 50 -20 74 -22 48 -5 143 -32 116 -34 -9 -1 -27 3 -40 8 -13 4 -36 11
-51 15 -26 6 -27 5 -17 -13 6 -12 16 -18 25 -15 8 4 36 -4 61 -15 43 -21 45
-23 28 -36 -15 -11 -16 -15 -4 -15 8 -1 37 -23 64 -49 49 -49 49 -49 33 -75
-12 -17 -22 -23 -34 -19 -11 4 -14 3 -9 -5 4 -7 14 -12 22 -12 8 0 14 -5 14
-10 0 -16 -24 -7 -40 15 -8 11 -15 23 -15 27 0 17 -15 19 -15 2 0 -15 -2 -16
-9 -4 -6 8 -7 18 -4 24 4 5 -1 7 -10 3 -9 -3 -21 1 -29 11 -12 15 -11 16 5 3
23 -18 22 2 -2 23 -18 17 -20 17 -30 -1 -7 -11 -11 -13 -11 -4 0 7 -6 11 -14
8 -7 -3 -23 1 -35 9 -12 8 -25 13 -30 9 -5 -3 -12 -1 -15 4 -3 5 6 11 19 14
14 2 28 0 31 -4 3 -5 23 -6 44 -3 35 6 42 3 88 -40 47 -44 72 -57 72 -37 0 14
-118 113 -128 107 -4 -2 -32 -7 -62 -9 -30 -3 -72 -8 -92 -12 -21 -4 -46 -4
-55 1 -13 5 2 10 47 16 36 4 72 9 80 11 8 2 40 7 70 12 l55 8 -30 13 c-16 7
-39 13 -51 14 -11 0 -29 9 -38 19 -16 17 -31 19 -155 18 l-138 -1 29 -24 c16
-14 38 -42 49 -63 11 -23 27 -39 37 -39 44 0 171 -79 397 -245 39 -29 84 -59
102 -68 39 -21 152 -22 206 -3 20 8 37 10 37 6 0 -17 -62 -34 -145 -37 -89 -4
-91 -4 -149 31 -32 20 -62 36 -66 36 -5 0 -10 4 -12 9 -6 17 -313 231 -331
231 -24 0 -13 -16 24 -35 16 -9 29 -22 29 -30 0 -17 -9 -19 -44 -5 -22 8 -25
6 -29 -18 -4 -25 -4 -25 -6 5 0 17 -6 35 -11 38 -6 4 -8 15 -5 24 7 24 -4 51
-20 51 -8 0 -19 16 -26 35 -7 19 -17 35 -21 35 -4 0 -8 6 -8 14 0 19 -54 57
-94 66 -25 7 -18 8 34 10 56 1 61 3 35 11 -31 9 -71 5 -117 -13 -21 -8 -39 -6
-78 8 -43 15 -57 16 -95 6 -25 -7 -55 -12 -68 -13 -21 0 -21 -1 -2 -9 11 -5
37 -12 59 -15 23 -4 35 -10 30 -15 -6 -6 -32 -3 -64 7 -30 9 -80 17 -110 19
-50 3 -52 2 -20 -6 19 -6 46 -11 60 -14 66 -10 101 -19 106 -28 4 -6 -1 -8
-12 -5 -11 4 -32 9 -49 12 -28 5 -28 4 7 -13 34 -17 36 -20 24 -37 -12 -17
-16 -17 -58 -3 -25 9 -51 12 -58 8 -9 -5 7 -14 43 -26 62 -19 80 -13 98 33 10
28 65 57 87 47 10 -4 25 -8 35 -9 25 -3 65 -43 88 -87 20 -38 26 -66 8 -36 -5
10 -19 22 -29 28 -16 8 -18 8 -14 -5 4 -8 10 -15 15 -15 5 0 9 -12 9 -26 0
-14 4 -23 8 -20 4 2 7 -35 6 -83 -3 -97 -19 -150 -61 -194 -80 -82 -185 35
-187 208 -1 44 2 92 7 108 4 16 3 27 -3 27 -10 0 -24 -44 -23 -71 1 -13 -7
-14 -48 -9 -27 4 -49 3 -49 -2 0 -4 10 -8 23 -8 42 0 67 -12 67 -31 0 -11 -4
-19 -9 -19 -13 0 -23 17 -14 23 5 2 2 2 -5 1 -36 -9 -101 61 -132 141 -7 18
-17 23 -44 23 -40 0 -50 -16 -36 -54 14 -37 12 -70 -5 -84 -8 -7 -13 -16 -10
-20 7 -12 123 -39 187 -44 67 -5 78 -10 78 -39 1 -12 9 -46 19 -74 10 -29 17
-53 16 -53 -1 0 -16 7 -33 16 -32 16 -45 31 -17 20 11 -4 15 1 15 18 0 12 -3
26 -7 30 -4 3 -8 14 -9 22 -5 33 -13 42 -33 37 -12 -3 -27 -1 -34 4 -6 5 -38
10 -70 11 -37 2 -78 12 -115 28 -31 14 -74 32 -94 40 -35 12 -38 12 -38 -6 0
-25 -16 -34 -37 -20 -15 10 -15 11 -1 6 19 -6 34 34 15 46 -6 4 -8 10 -4 14 4
4 13 2 19 -4 14 -14 48 -16 48 -3 0 5 -15 22 -33 37 -17 15 -31 31 -29 36 1 4
-9 8 -22 8 -14 0 -28 5 -32 11 -4 8 0 9 15 4 29 -9 27 2 -11 56 -36 49 -86 99
-100 99 -5 0 -6 5 -3 10 3 6 2 10 -3 10 -20 0 -20 28 -1 49 15 16 32 21 70 21
29 0 48 4 44 10 -3 5 -11 7 -18 5 -7 -3 -20 12 -30 33 -29 62 -58 108 -54 87
5 -26 -15 -45 -47 -45 -17 0 -24 -4 -20 -14 4 -10 -2 -12 -23 -8 -20 4 -23 7
-10 10 36 7 10 27 -37 27 -51 1 -69 -10 -36 -20 11 -4 29 -24 40 -45 17 -33
19 -53 15 -126 -5 -102 -18 -148 -47 -169 -19 -13 -24 -12 -49 6 -17 12 -30
15 -34 9 -6 -9 50 -50 69 -50 5 0 18 -7 28 -17 13 -12 18 -13 18 -3 0 21 41
100 51 100 6 0 5 -8 -1 -20 -6 -11 -8 -20 -4 -20 3 0 1 -6 -5 -14 -9 -11 -4
-17 24 -30 20 -10 44 -18 55 -19 11 -1 22 -7 25 -15 2 -7 25 -22 50 -33 25
-11 45 -22 45 -25 0 -5 -29 7 -144 60 -71 33 -105 40 -80 17 8 -9 156 -77 569
-266 94 -42 186 -86 206 -96 20 -10 47 -19 58 -19 13 0 19 -4 16 -10 -4 -6
-11 -8 -16 -5 -5 4 -9 1 -9 -4 0 -6 9 -11 20 -11 11 0 20 -4 20 -9 0 -5 -19
-4 -42 2 -34 8 -38 12 -22 18 14 5 10 7 -13 6 -18 -1 -33 -3 -33 -4 0 -2 24
-14 53 -28 60 -30 127 -47 127 -34 0 5 -6 9 -14 9 -8 0 -17 8 -20 17 -6 15 -8
15 -16 3 -6 -9 -10 -10 -10 -3 0 6 5 15 10 18 18 11 11 35 -7 29 -10 -4 -3 3
15 15 18 12 37 32 42 46 5 14 11 25 13 25 2 0 3 -25 3 -55 -1 -57 -4 -63 -24
-43 -6 6 -15 9 -18 5 -12 -12 5 -37 33 -48 22 -8 25 -12 13 -20 -12 -8 -10
-10 8 -6 29 7 115 -30 106 -45 -4 -6 1 -8 12 -4 11 3 26 1 34 -4 13 -9 13 -10
0 -10 -9 -1 -5 -6 10 -15 30 -16 88 -12 180 15 36 10 81 21 100 24 19 3 60 13
90 22 30 8 114 19 185 24 155 9 154 9 192 41 17 14 60 33 99 43 38 9 87 22
108 27 22 6 48 13 59 15 11 2 24 8 27 14 5 7 21 9 44 5 40 -8 49 -25 14 -25
-13 -1 -93 -18 -178 -39 -141 -35 -155 -40 -152 -59 2 -17 -5 -22 -48 -31 -28
-6 -91 -11 -141 -11 -74 0 -126 -9 -296 -51 -130 -32 -221 -49 -243 -46 -19 2
-80 25 -135 51 -56 25 -114 47 -130 49 -44 6 -177 70 -162 79 6 4 9 8 7 10
-12 9 -203 94 -270 121 -135 53 -241 105 -225 109 28 5 -216 105 -274 111 -30
4 -58 12 -62 18 -4 7 -24 15 -45 18 -20 3 -39 12 -42 20 -3 10 2 12 21 7 31
-7 46 10 16 19 -12 4 -18 12 -15 21 3 8 3 41 0 73 -6 54 -9 59 -38 69 -17 6
-41 9 -53 6 -12 -3 -44 2 -72 11 -48 16 -71 14 -71 -4 0 -5 8 -11 18 -14 9 -3
55 -19 101 -35 75 -26 82 -31 64 -41 -25 -13 -88 6 -130 39 -14 11 -32 20 -40
20 -7 0 -16 7 -19 15 -4 8 -13 15 -22 15 -25 0 -182 62 -182 71 0 15 22 10
108 -21 60 -22 87 -27 104 -21 23 9 23 9 -6 20 -16 6 -27 14 -24 16 3 3 30 -6
60 -20 31 -14 78 -26 110 -28 76 -5 104 -24 111 -78 6 -48 46 -95 72 -86 58
23 58 201 0 273 -21 26 -25 27 -38 14 -8 -8 -18 -26 -21 -40 -6 -25 -6 -25 5
-2 7 12 18 22 26 22 9 0 7 -6 -7 -20 -22 -22 -28 -90 -9 -90 7 0 9 -12 5 -33
-4 -21 0 -48 10 -73 15 -36 15 -38 -1 -23 -22 21 -45 112 -45 178 0 40 7 65
25 98 l26 43 -21 66 c-24 80 -29 240 -7 231 8 -3 47 -2 88 3 41 4 124 11 185
15 l111 7 33 -51 c18 -28 35 -50 36 -48 5 5 -54 146 -71 170 -8 12 -15 29 -15
39 0 10 -5 18 -12 18 -6 0 -9 2 -7 5 10 9 64 -12 64 -26 0 -18 64 -49 116 -56
22 -3 42 -10 46 -16 9 -14 -82 -1 -118 17 -23 12 -29 12 -29 1 0 -38 123 -63
150 -30 7 8 25 14 41 13 29 -2 37 -12 19 -23 -6 -3 -8 -16 -5 -28 3 -12 6 -39
8 -60 2 -20 6 -37 8 -37 40 4 68 30 33 30 -9 0 -14 6 -11 13 2 6 11 10 18 8 8
-2 39 -3 69 -3 56 1 257 -33 680 -114 425 -82 493 -94 708 -134 116 -22 217
-40 222 -40 6 0 10 11 10 24 0 22 -6 25 -52 31 -29 4 -62 9 -73 11 -51 10
-215 37 -350 60 -82 13 -170 28 -195 34 -25 5 -76 15 -115 21 -38 6 -79 13
-90 15 -11 2 -38 6 -60 9 -22 3 -47 8 -55 11 -14 5 -206 41 -260 49 -50 7
-106 16 -128 21 -20 4 -151 24 -262 40 -64 9 -69 10 -77 18 -15 16 324 -32
637 -89 144 -26 681 -119 1049 -181 43 -7 38 18 -5 27 l-29 7 33 1 c20 1 32 6
32 15 0 9 -29 18 -97 29 -54 8 -211 32 -350 53 -138 21 -247 41 -242 45 10 6
139 -13 180 -26 12 -4 19 -2 19 7 0 15 -60 48 -85 48 -8 0 -15 6 -15 14 0 9 8
12 25 8 14 -2 25 -8 25 -12 0 -4 11 -12 25 -18 21 -10 25 -9 25 4 0 8 4 13 10
9 5 -3 7 -12 4 -19 -7 -17 33 -46 63 -46 21 0 23 5 25 50 0 28 1 56 2 63 1 12
-70 23 -179 28 -27 1 -55 5 -60 10 -19 14 -69 20 -237 26 -158 6 -167 7 -172
27 -4 16 -8 18 -17 9 -7 -7 -10 -34 -7 -72 l4 -61 -30 5 c-63 10 -161 25 -170
25 -5 0 -6 3 -2 7 4 4 15 8 24 8 20 0 20 15 21 369 1 121 4 216 7 213 4 -3 6
-53 5 -111 -1 -82 2 -105 13 -109 8 -3 20 0 26 8 6 8 18 11 26 8 11 -4 14 8
14 59 0 71 -13 119 -44 160 -17 24 -25 27 -63 24 -24 -2 -46 1 -49 5 -3 5 -12
9 -21 9 -11 0 -13 -5 -8 -17 15 -35 18 -66 7 -59 -6 4 -17 -2 -24 -14 -19 -30
-29 -24 -17 9 6 16 9 42 7 58 l-3 28 -124 2 -123 3 4 -159 c2 -88 1 -158 -3
-155 -4 2 -44 5 -88 6 -59 1 -81 4 -77 13 2 7 -2 41 -10 76 -7 35 -13 73 -13
84 0 31 18 -18 32 -90 l12 -60 65 0 c61 0 65 1 64 23 0 12 -1 74 -2 138 -2
114 -2 115 -24 112 -21 -3 -23 -8 -21 -66 1 -35 -3 -60 -8 -56 -5 3 -9 26 -9
52 0 26 -4 52 -8 58 -11 16 -84 18 -81 2 1 -7 -1 -20 -4 -28 -3 -8 -8 -26 -10
-40 -2 -14 -5 -3 -6 23 -1 42 -4 50 -23 55 -63 17 123 20 925 17 755 -4 867
-2 867 10 0 13 -128 15 -985 15 -652 0 -985 -3 -985 -10 0 -7 -101 -8 -297 -4
-328 6 -313 9 -313 -60 0 -51 -10 -41 -12 12 -1 36 -3 39 -14 24 -12 -17 -12
-89 0 -337 5 -93 4 -97 -8 -59 -7 22 -15 115 -19 208 -6 171 -1 209 31 221 8
3 171 8 361 10 190 3 382 7 426 10 44 3 355 6 690 7 946 4 1125 7 1125 20 0
10 -790 8 -1990 -6 -195 -3 -335 -1 -310 3 l45 8 -40 2 c-59 2 -115 13 -115
21 0 14 33 21 40 10 7 -12 273 -14 480 -5 52 2 235 7 405 10 171 3 398 7 505
10 107 3 372 8 588 11 332 5 392 9 392 21 0 12 -17 13 -102 9 -153 -9 -1388
-29 -1738 -29 -281 0 -459 6 -600 20 -30 3 -74 6 -97 7 -22 0 -39 4 -36 9 4 7
3 8 -62 11 -22 1 -46 5 -52 9 -13 8 -43 -1 -43 -14 0 -12 -37 -11 -45 1 -4 6
5 10 19 10 17 0 26 5 26 16 0 12 7 15 26 11 16 -3 28 0 31 9 3 8 10 14 15 14
7 0 6 -5 -1 -14 -9 -10 -8 -15 4 -20 19 -7 47 3 61 22 9 12 11 11 10 -8 -1
-29 35 -41 78 -27 23 8 31 7 41 -6 19 -26 55 -22 55 5 l0 22 15 -21 c13 -19
20 -20 47 -12 18 5 34 9 35 9 1 0 0 -7 -3 -15 -9 -22 6 -18 27 7 11 11 19 16
19 10 0 -15 29 -19 68 -11 27 6 32 4 28 -7 -4 -11 12 -14 92 -14 96 1 97 1 67
17 -16 10 -33 16 -37 15 -3 -1 -9 5 -12 13 -8 21 7 19 34 -5 15 -13 31 -18 43
-14 15 5 19 3 14 -9 -4 -11 3 -16 29 -19 19 -2 34 0 34 5 0 5 7 1 16 -7 8 -9
20 -13 26 -10 5 4 57 6 114 5 l104 -1 2 28 c5 84 14 77 -94 80 -86 2 -97 1
-101 -15 -4 -17 -5 -17 -6 0 -1 14 -11 17 -62 17 -33 0 -58 -4 -55 -9 3 -5 -7
-11 -24 -13 -18 -3 -31 0 -34 8 -7 18 -124 17 -150 -2 -26 -18 -36 -18 -36 1
0 12 -15 15 -82 13 l-83 -2 68 -3 c37 -2 67 -8 67 -14 0 -12 -133 0 -138 12
-2 5 -17 9 -33 9 -18 0 -28 -4 -24 -10 3 -5 -1 -10 -10 -10 -9 0 -13 5 -9 11
4 7 -1 7 -16 -1 -15 -8 -25 -9 -29 -2 -4 6 -63 11 -151 11 l-145 0 1 -63 c1
-35 3 -67 6 -72 3 -5 6 -31 7 -59 1 -27 6 -102 11 -165 5 -69 5 -116 -1 -118
-5 -2 -9 -13 -9 -23 0 -11 5 -17 10 -14 6 4 10 -5 10 -19 0 -37 1 -40 12 -53
8 -10 3 -13 -21 -13 -23 0 -31 5 -31 18 -1 9 -3 46 -5 82 -7 105 -15 251 -21
367 -3 59 -7 114 -9 121 -3 8 -29 12 -86 12 l-81 0 4 -355z m1138 316 c0 -11
-50 -7 -54 5 -2 6 7 9 25 6 16 -2 29 -7 29 -11z m-60 -21 c0 -5 -2 -10 -4 -10
-3 0 -8 5 -11 10 -3 6 -1 10 4 10 6 0 11 -4 11 -10z m-662 -135 c3 -3 -14 -5
-37 -5 -43 0 -73 -20 -99 -65 -6 -11 -13 -17 -16 -14 -9 9 53 87 72 91 21 5
73 0 80 -7z m172 -1 c0 -2 -7 -4 -15 -4 -8 0 -15 4 -15 10 0 5 7 7 15 4 8 -4
15 -8 15 -10z m503 -63 c12 -2 8 -23 -8 -41 -8 -9 -26 -39 -40 -66 -23 -48
-24 -48 -19 -14 2 19 6 55 8 80 3 25 5 45 5 46 1 0 11 0 24 -2 12 -1 25 -3 30
-3z m39 -171 l-3 -170 28 -11 c15 -6 30 -10 33 -10 3 1 8 40 11 88 l5 88 2
-87 c2 -71 5 -88 17 -88 8 0 15 -8 15 -17 0 -15 -2 -16 -10 -3 -5 8 -11 12
-15 9 -3 -3 4 -16 15 -29 24 -28 28 -59 5 -40 -13 11 -15 8 -15 -19 0 -21 5
-31 15 -31 10 0 15 -10 15 -30 0 -19 7 -33 20 -40 29 -16 15 -32 -15 -18 -19
9 -25 19 -25 45 0 19 -5 33 -12 34 -7 1 -65 3 -128 5 -63 2 -133 6 -155 8 -22
3 -58 6 -80 7 -26 2 -14 5 34 8 61 5 75 9 77 24 1 10 9 28 18 40 9 12 23 32
33 45 9 14 16 41 15 65 0 39 0 40 8 13 5 -16 7 -33 4 -37 -2 -4 0 -10 6 -14 9
-6 14 7 11 30 -1 6 7 -1 18 -15 11 -14 22 -22 26 -19 3 4 4 60 3 125 -2 97 -5
115 -15 99 -6 -12 -14 -41 -18 -65 -7 -48 -15 -66 -15 -34 0 10 -3 28 -6 39
-3 12 9 42 31 79 19 32 35 67 35 77 0 11 3 19 8 19 4 0 6 -77 4 -170z m65 118
c-3 -7 -5 -2 -5 12 0 14 2 19 5 13 2 -7 2 -19 0 -25z m-633 -55 c-14 -29 -17
-203 -4 -218 6 -7 12 -50 13 -94 2 -65 -1 -80 -11 -76 -8 3 -19 5 -26 5 -9 0
-15 25 -19 78 -9 106 -23 151 -52 164 -14 6 -22 15 -19 19 6 11 61 -16 67 -33
8 -25 14 -3 20 75 l6 77 -54 0 c-29 0 -57 5 -60 10 -4 6 22 10 70 10 70 0 76
-2 69 -17z m156 -4 c0 -5 -4 -9 -10 -9 -5 0 -10 -5 -10 -11 0 -7 11 -9 30 -5
17 3 30 2 30 -2 0 -12 124 -1 132 12 5 7 8 4 8 -6 0 -10 5 -18 11 -18 5 0 8
-3 6 -7 -3 -5 -52 -8 -109 -8 -102 1 -103 1 -116 28 -7 15 -10 31 -7 37 7 11
35 2 35 -11z m977 -57 c-18 -20 -33 -75 -43 -162 l-8 -65 -6 60 c-4 33 -3 65
2 71 4 6 11 33 14 60 4 27 16 63 28 79 l21 30 3 -28 c2 -16 -3 -36 -11 -45z
m-1055 36 c3 -7 6 -37 7 -65 2 -52 2 -53 -27 -53 -28 0 -30 3 -36 51 -7 55 3
79 34 79 10 0 20 -6 22 -12z m718 -32 c0 -8 -4 -18 -10 -21 -5 -3 -10 3 -10
14 0 12 5 21 10 21 6 0 10 -6 10 -14z m-650 -41 c-13 -15 -3 -20 39 -17 21 1
61 -16 61 -26 0 -10 -57 -8 -82 2 -9 4 -21 5 -26 2 -6 -3 -12 8 -14 24 -4 25
-1 30 15 30 16 0 17 -3 7 -15z m240 -15 c0 -27 -20 -38 -72 -38 -54 -1 -60 4
-43 36 l12 23 7 -23 c6 -22 7 -22 20 -5 12 16 14 16 20 1 9 -23 32 -11 28 14
-2 16 1 20 12 16 9 -3 16 -14 16 -24z m-135 10 c3 -5 2 -10 -4 -10 -5 0 -13 5
-16 10 -3 6 -2 10 4 10 5 0 13 -4 16 -10z m543 -14 c-1 -14 -5 -23 -9 -20 -7
4 0 44 7 44 2 0 3 -11 2 -24z m-912 -156 c5 -78 11 -108 23 -117 9 -7 12 -12
6 -12 -28 0 -41 27 -44 94 -2 39 -4 89 -5 113 -1 23 1 39 5 35 4 -5 11 -55 15
-113z m621 98 c-3 -8 -6 -5 -6 6 -1 11 2 17 5 13 3 -3 4 -12 1 -19z m-305 -9
c86 0 112 -14 45 -23 -72 -9 -187 0 -205 17 -14 14 -10 15 34 11 27 -2 84 -4
126 -5z m938 -54 c0 -8 -4 -15 -10 -15 -5 0 -10 7 -10 15 0 8 5 15 10 15 6 0
10 -7 10 -15z m-131 -1 c38 -8 42 -34 5 -34 -14 0 -23 4 -20 9 12 19 -19 16
-36 -3 l-17 -21 -1 22 c0 19 10 30 31 32 4 1 21 -2 38 -5z m-572 -10 c-7 -7
-219 -6 -226 1 -2 3 49 5 114 5 65 0 116 -3 112 -6z m729 -79 c0 -30 -5 -55
-9 -55 -8 0 -8 87 0 103 9 15 11 5 9 -48z m-1391 -16 c5 -5 -6 -9 -27 -9 -37
0 -59 -14 -36 -23 9 -4 10 -6 1 -6 -17 -1 -23 12 -16 37 4 18 10 20 37 15 17
-3 35 -10 41 -14z m1322 -5 c-3 -3 -12 -4 -19 -1 -8 3 -5 6 6 6 11 1 17 -2 13
-5z m3 -35 c0 -5 -7 -9 -15 -9 -9 0 -12 6 -9 15 6 15 24 11 24 -6z m-1487 4
c-13 -2 -35 -2 -50 0 -16 2 -5 4 22 4 28 0 40 -2 28 -4z m1347 -3 c0 -5 -5
-10 -11 -10 -5 0 -7 5 -4 10 3 6 8 10 11 10 2 0 4 -4 4 -10z m-696 -51 c77
-11 147 -24 155 -30 21 -13 -51 -3 -284 39 -95 18 -10 12 129 -9z m899 -48 l2
-61 -60 1 c-33 1 -49 4 -35 6 14 3 29 9 34 14 6 5 -43 9 -122 8 -72 0 -138 3
-146 8 -8 4 48 9 126 11 121 2 142 0 153 -15 20 -27 37 -6 31 39 -5 38 0 65
11 54 3 -2 5 -32 6 -65z m-63 31 c0 -4 -11 -8 -25 -8 -28 -2 -34 12 -7 19 19
4 32 0 32 -11z m-163 -5 c3 -4 -15 -7 -41 -7 -30 0 -45 4 -41 10 7 11 70 8 82
-3z m103 3 c0 -5 -9 -10 -20 -10 -11 0 -20 5 -20 10 0 6 9 10 20 10 11 0 20
-4 20 -10z m-226 -9 c3 -4 -6 -6 -19 -3 -14 2 -25 6 -25 8 0 8 39 4 44 -5z
m-976 -8 c-21 -2 -55 -2 -75 0 -21 2 -4 4 37 4 41 0 58 -2 38 -4z m222 -17
c110 -17 56 -18 -80 -1 -72 8 -89 12 -55 13 28 0 88 -5 135 -12z m-255 -17
c29 -1 21 -4 -30 -9 -75 -7 -80 -6 -72 7 3 5 18 8 34 7 15 -1 46 -3 68 -5z
m77 -11 c-9 -9 -15 -9 -24 0 -9 9 -7 12 12 12 19 0 21 -3 12 -12z m348 2 c17
-6 9 -7 -25 -3 -27 3 -52 7 -54 9 -8 7 54 2 79 -6z m-125 -20 c24 -10 -93 -1
-150 11 -26 5 -11 6 45 2 47 -3 94 -9 105 -13z m1495 8 c0 -5 13 -8 29 -8 17
0 33 -4 36 -10 4 -6 -42 -10 -132 -10 -94 0 -133 3 -123 10 13 9 13 11 0 19
-9 7 21 9 88 8 56 -1 102 -5 102 -9z m128 3 c25 -15 -9 -18 -68 -5 l-55 12 55
1 c30 0 61 -3 68 -8z m-2081 -8 c-20 -2 -52 -2 -70 0 -17 2 0 4 38 4 39 0 53
-2 32 -4z m656 0 c-7 -2 -21 -2 -30 0 -10 3 -4 5 12 5 17 0 24 -2 18 -5z
m1506 -58 c7 -7 -44 -10 -152 -9 -227 2 -272 6 -157 14 134 10 297 7 309 -5z
m-1604 -5 c4 -6 -10 -9 -37 -9 l-43 2 35 7 c19 4 36 8 37 9 1 0 5 -3 8 -9z
m35 0 c0 -5 -5 -10 -11 -10 -5 0 -7 5 -4 10 3 6 8 10 11 10 2 0 4 -4 4 -10z
m32 -20 c3 -16 1 -30 -4 -30 -4 0 -8 6 -8 14 0 8 -3 21 -6 30 -3 9 -2 16 4 16
5 0 12 -13 14 -30z m68 6 c0 -14 -4 -28 -10 -31 -6 -4 -10 7 -10 24 0 17 5 31
10 31 6 0 10 -11 10 -24z m30 14 c0 -5 -2 -10 -4 -10 -3 0 -8 5 -11 10 -3 6
-1 10 4 10 6 0 11 -4 11 -10z m46 -30 c22 0 17 -16 -6 -17 -16 -1 -20 4 -19
30 1 24 3 26 6 10 2 -13 11 -23 19 -23z m27 33 c-7 -2 -19 -2 -25 0 -7 3 -2 5
12 5 14 0 19 -2 13 -5z m-438 -33 c30 -6 12 -8 -72 -7 -62 1 -107 5 -100 9 16
10 121 9 172 -2z m305 -11 c0 -5 -4 -9 -10 -9 -5 0 -10 7 -10 16 0 8 5 12 10
9 6 -3 10 -10 10 -16z m56 -6 c-10 -10 -19 5 -10 18 6 11 8 11 12 0 2 -7 1
-15 -2 -18z m-669 -10 c-7 -7 -57 8 -57 18 0 4 14 3 31 -3 16 -6 28 -12 26
-15z m90 21 c-3 -3 -12 -4 -19 -1 -8 3 -5 6 6 6 11 1 17 -2 13 -5z m453 -4 c0
-5 -4 -10 -10 -10 -5 0 -10 5 -10 10 0 6 5 10 10 10 6 0 10 -4 10 -10z m675 1
c5 -1 5 -5 -1 -11 -11 -11 -44 -3 -44 10 0 5 8 7 18 5 9 -2 21 -4 27 -4z m792
3 c-3 -3 -12 -4 -19 -1 -8 3 -5 6 6 6 11 1 17 -2 13 -5z m-1972 -34 c3 -6 -1
-7 -9 -4 -18 7 -21 14 -7 14 6 0 13 -4 16 -10z m773 5 c-9 -10 -343 -33 -351
-25 -5 4 51 12 125 17 167 12 233 14 226 8z m-631 -11 c-3 -3 -12 -4 -19 -1
-8 3 -5 6 6 6 11 1 17 -2 13 -5z m808 -4 c7 -11 -9 -11 -45 0 -24 8 -24 8 7 9
17 1 35 -3 38 -9z m-1091 -9 c4 -5 -3 -7 -14 -4 -23 6 -26 13 -6 13 8 0 17 -4
20 -9z m399 -12 c21 -6 37 -12 35 -15 -6 -5 -130 25 -138 34 -6 6 46 -4 103
-19z m-276 5 c-3 -3 -12 -4 -19 -1 -8 3 -5 6 6 6 11 1 17 -2 13 -5z m-52 -14
c13 -5 14 -9 5 -9 -8 0 -24 4 -35 9 -13 5 -14 9 -5 9 8 0 24 -4 35 -9z m182 4
c-3 -3 -12 -4 -19 -1 -8 3 -5 6 6 6 11 1 17 -2 13 -5z m-170 -38 c407 -118
398 -115 391 -121 -3 -3 -56 10 -119 29 -63 19 -177 53 -253 75 -123 37 -164
51 -143 51 3 0 59 -15 124 -34z m210 28 c-3 -3 -12 -4 -19 -1 -8 3 -5 6 6 6
11 1 17 -2 13 -5z m-66 -38 c63 -19 143 -42 178 -52 36 -10 60 -19 54 -21 -11
-4 -352 94 -362 103 -10 10 24 2 130 -30z m124 -6 c99 -26 109 -29 104 -34 -5
-5 -210 52 -218 60 -3 4 3 4 14 1 11 -3 56 -15 100 -27z m12 24 c-3 -3 -12 -4
-19 -1 -8 3 -5 6 6 6 11 1 17 -2 13 -5z m63 -14 c11 -8 7 -9 -15 -4 -37 8 -45
14 -19 14 10 0 26 -5 34 -10z m2217 -6 c-3 -3 -12 -4 -19 -1 -8 3 -5 6 6 6 11
1 17 -2 13 -5z m-2507 -38 c279 -80 325 -95 318 -101 -5 -5 -55 8 -213 57
-131 40 -220 69 -225 75 -3 3 4 3 15 0 11 -4 58 -17 105 -31z m-220 0 c0 -2
-9 -6 -20 -9 -11 -3 -20 -1 -20 4 0 5 9 9 20 9 11 0 20 -2 20 -4z m1560 -76
c8 -5 11 -10 5 -10 -5 0 -17 5 -25 10 -8 5 -10 10 -5 10 6 0 17 -5 25 -10z
m25 -31 c13 -13 -3 -10 -45 7 l-35 14 35 -6 c19 -3 39 -10 45 -15z m174 5 c66
-15 95 -34 54 -34 -14 -1 -12 -4 7 -15 22 -13 23 -14 5 -14 -36 -1 -159 35
-162 46 -3 7 5 10 19 7 22 -5 22 -5 -2 10 -33 20 -12 20 79 0z m-226 -57 c23
-9 22 -23 -2 -30 -24 -6 -47 19 -49 53 -1 25 -1 25 16 5 9 -12 25 -24 35 -28z
m43 17 c18 -14 18 -15 -6 -8 -31 8 -50 24 -29 24 8 0 24 -7 35 -16z m497 -39
c76 -19 141 -36 145 -36 4 -1 -6 -5 -23 -8 -16 -4 -35 -4 -40 0 -10 7 -120 37
-209 56 -22 5 -41 14 -43 20 -3 7 3 10 14 7 10 -2 80 -20 156 -39z m-315 8
c44 -10 72 -22 72 -30 0 -7 -7 -13 -16 -13 -8 0 -12 4 -9 10 5 9 -15 8 -78 -5
-9 -2 -14 1 -11 6 3 6 -6 9 -22 7 -15 -2 -29 2 -31 9 -3 8 7 9 38 2 24 -6 52
-8 63 -6 12 2 -4 8 -36 16 -32 7 -58 14 -58 17 0 7 11 5 88 -13z m-1022 -20
c-6 -6 -36 9 -36 18 0 5 9 4 20 -3 10 -7 18 -14 16 -15z m849 17 c3 -5 2 -10
-4 -10 -5 0 -13 5 -16 10 -3 6 -2 10 4 10 5 0 13 -4 16 -10z m-961 -32 c9 -37
7 -118 -4 -118 -5 0 -10 17 -10 38 0 44 -13 68 -31 57 -7 -5 -4 4 7 18 23 32
30 33 38 5z m1525 -73 c3 -4 -8 -3 -24 1 -141 33 -220 55 -228 63 -6 6 48 -5
118 -24 70 -19 130 -37 134 -40z m278 69 c-3 -3 -12 -4 -19 -1 -8 3 -5 6 6 6
11 1 17 -2 13 -5z m-669 -30 c39 -10 72 -21 72 -26 0 -4 -3 -8 -7 -8 -17 0
-153 47 -160 55 -5 4 -1 5 7 2 8 -3 48 -13 88 -23z m57 5 c14 -6 9 -7 -15 -3
-19 4 -44 11 -55 15 -14 6 -9 7 15 3 19 -4 44 -11 55 -15z m-1215 -35 c0 -8
-4 -12 -10 -9 -5 3 -10 13 -10 21 0 8 5 12 10 9 6 -3 10 -13 10 -21z m1432 -1
c62 -15 105 -29 95 -31 -16 -3 -216 44 -226 53 -9 10 21 4 131 -22z m-555 -28
c0 -10 -6 -14 -14 -10 -8 3 -24 5 -36 6 -21 0 -21 1 -2 9 31 14 52 11 52 -5z
m-1341 -50 c73 -32 111 -44 129 -39 15 4 25 2 25 -5 0 -6 -9 -11 -20 -11 -11
0 -20 -5 -20 -11 0 -6 7 -8 16 -5 9 3 25 6 37 6 18 0 19 2 7 11 -11 8 -5 9 25
4 22 -4 42 -8 44 -10 10 -11 -13 -22 -51 -24 -24 -1 -50 -3 -58 -4 -19 -2
-270 114 -270 125 0 16 35 7 136 -37z m1455 23 c-37 -7 -56 -7 -64 1 -8 8 7
11 54 10 l64 -1 -54 -10z m-1394 -152 c283 -155 292 -158 349 -151 30 3 53 9
53 13 -1 4 -1 10 0 14 0 4 70 -27 154 -67 83 -41 166 -75 182 -75 l30 -1 -31
-16 c-30 -15 -33 -14 -173 56 -135 68 -144 71 -191 65 -28 -4 -50 -9 -50 -13
0 -3 97 -57 214 -119 144 -76 219 -110 232 -106 15 4 14 1 -5 -14 l-24 -19
164 -86 c470 -244 429 -227 515 -206 24 6 47 15 50 20 2 5 -18 20 -46 34 -40
20 -50 30 -50 51 0 14 4 24 9 22 5 -1 61 -28 124 -58 l115 -55 -5 -35 -5 -35
224 -114 c123 -63 279 -144 348 -181 238 -128 268 -141 304 -135 17 4 37 15
43 25 11 16 8 18 -40 14 -28 -2 -54 0 -57 4 -3 4 -68 38 -145 75 -161 79 -150
73 -238 120 -37 21 -74 37 -82 37 -8 0 -15 5 -15 10 0 6 -12 15 -27 21 -16 6
-85 39 -154 74 -70 35 -129 62 -131 59 -3 -3 -8 4 -11 16 -3 11 -3 20 0 20 2
0 187 -93 410 -206 l406 -207 72 6 c40 3 87 13 105 22 35 18 37 18 42 -9 2
-15 -10 -24 -64 -44 -43 -15 -70 -31 -73 -43 -5 -15 -16 -19 -48 -19 -41 0
-87 20 -242 105 -64 35 -167 89 -447 234 -98 51 -178 97 -178 102 0 5 -6 9
-14 9 -8 0 -39 13 -70 29 -31 17 -57 26 -57 20 -5 -37 -1 -35 -89 -53 l-75
-15 -220 116 c-121 65 -252 133 -291 153 -64 31 -71 38 -67 60 4 23 -10 33
-207 140 -121 66 -208 120 -206 126 3 7 -6 14 -19 16 -12 3 -111 52 -218 109
-146 77 -195 108 -194 121 1 10 5 18 9 18 4 0 52 -24 105 -54z m-7 44 c0 -5
-8 -10 -17 -10 -15 0 -16 2 -3 10 19 12 20 12 20 0z m273 -90 c23 -20 -15 -16
-66 7 -41 19 -57 31 -57 45 0 18 5 17 58 -13 31 -17 61 -35 65 -39z m-206 54
c-3 -3 -12 -4 -19 -1 -8 3 -5 6 6 6 11 1 17 -2 13 -5z m33 -4 c0 -5 -5 -10
-11 -10 -5 0 -7 5 -4 10 3 6 8 10 11 10 2 0 4 -4 4 -10z m545 -20 c3 -6 -1 -7
-9 -4 -18 7 -21 14 -7 14 6 0 13 -4 16 -10z m1845 -28 c3 -3 -8 -2 -25 2 -16
4 -34 12 -40 17 -5 5 6 4 25 -2 19 -7 37 -14 40 -17z m-2336 10 c3 -5 -1 -9
-9 -9 -8 0 -15 4 -15 9 0 4 4 8 9 8 6 0 12 -4 15 -8z m2359 -39 l79 -17 53
-79 c30 -44 51 -86 48 -93 -7 -20 -65 -34 -82 -20 -12 9 -13 8 -6 -3 6 -11 3
-13 -16 -8 -24 7 -207 -30 -223 -45 -15 -13 12 -9 94 12 41 10 76 17 78 15 2
-2 -16 -9 -40 -15 -23 -7 -54 -16 -68 -21 -14 -4 -38 -10 -55 -13 -16 -2 -55
-12 -85 -22 -30 -10 -64 -18 -75 -18 -11 -1 -26 -5 -33 -9 -7 -5 -20 -6 -29
-3 -8 4 -21 2 -28 -4 -7 -6 -17 -10 -21 -9 -9 2 -57 -8 -84 -18 -8 -3 -31 -8
-50 -10 -19 -2 -40 -9 -47 -14 -7 -6 -17 -8 -23 -4 -6 4 -18 1 -26 -6 -8 -6
-17 -9 -20 -6 -3 3 -17 2 -30 -3 -25 -10 -62 -19 -99 -25 -11 -1 -36 -9 -55
-17 -19 -8 -42 -13 -49 -10 -8 3 10 13 41 23 43 13 487 120 645 154 12 3 31
14 41 25 12 13 66 31 167 55 82 19 151 37 153 39 2 3 -14 16 -36 30 -38 24
-43 24 -74 12 -42 -17 -185 -49 -199 -44 -6 2 42 16 106 32 l116 28 -31 19
c-27 17 -36 18 -78 8 -26 -7 -55 -20 -65 -30 -10 -11 -24 -19 -32 -19 -7 0
-15 -6 -18 -12 -3 -10 -7 -10 -20 1 -23 18 -14 28 33 36 39 7 40 7 40 50 0 45
7 75 18 75 4 0 42 -8 85 -17z m-1663 -54 c58 -23 87 -30 128 -27 28 2 52 1 52
-2 -1 -18 -22 -33 -47 -32 -24 0 -206 72 -221 87 -12 12 18 3 88 -26z m617 9
c-3 -8 -6 -5 -6 6 -1 11 2 17 5 13 3 -3 4 -12 1 -19z m-1466 -15 c13 -17 13
-17 -6 -3 -11 8 -22 16 -24 17 -2 2 0 3 6 3 6 0 17 -8 24 -17z m1642 -28 c-7
-21 -13 -19 -13 6 0 11 4 18 10 14 5 -3 7 -12 3 -20z m-560 -22 c-7 -2 -21 -2
-30 0 -10 3 -4 5 12 5 17 0 24 -2 18 -5z m44 -9 c-3 -3 -12 -4 -19 -1 -8 3 -5
6 6 6 11 1 17 -2 13 -5z m-1030 -20 c-3 -3 -12 -4 -19 -1 -8 3 -5 6 6 6 11 1
17 -2 13 -5z m1380 -13 c-4 -16 4 -23 41 -35 51 -18 86 -21 78 -7 -10 15 17
28 69 34 36 4 44 3 27 -3 -13 -6 -36 -11 -53 -12 -16 -1 -29 -6 -29 -11 0 -5
23 -7 50 -5 28 3 50 2 50 -2 0 -4 -6 -7 -12 -8 -7 -1 -31 -5 -52 -9 -33 -7
-37 -10 -24 -21 12 -10 26 -10 59 -2 24 6 55 12 69 14 39 5 42 5 36 15 -3 4 6
6 19 3 14 -2 33 -1 42 3 16 6 14 8 -9 21 -16 8 -28 17 -28 20 0 2 8 1 18 -4 9
-6 71 -36 137 -67 66 -32 115 -60 108 -62 -6 -2 -25 3 -42 11 -42 22 -60 21
-231 -19 -83 -19 -153 -35 -155 -35 -2 0 2 -13 8 -30 6 -16 17 -30 23 -30 7 0
93 18 191 40 184 40 297 60 238 40 -64 -21 -426 -101 -442 -98 -10 2 -18 8
-18 13 -1 6 -13 34 -29 63 -15 30 -25 56 -23 58 8 9 38 -28 33 -41 -3 -9 4 -9
32 0 21 7 97 26 171 41 l135 28 -40 17 c-37 16 -44 16 -144 -5 -184 -39 -170
-38 -179 -13 -7 17 -23 26 -62 36 -30 8 -64 18 -77 22 -23 9 -23 9 -5 34 22
30 27 31 20 6z m-1312 -1 c-3 -5 -18 -9 -33 -9 l-27 1 30 8 c17 4 31 8 33 9 2
0 0 -3 -3 -9z m945 -40 c8 -5 11 -10 5 -10 -5 0 -17 5 -25 10 -8 5 -10 10 -5
10 6 0 17 -5 25 -10z m80 -35 c17 -9 30 -18 30 -21 0 -4 -59 23 -69 32 -10 9
13 3 39 -11z m349 1 c25 -7 47 -19 50 -27 3 -11 1 -12 -10 -2 -8 6 -27 14 -41
17 -28 5 -70 25 -53 26 6 0 30 -6 54 -14z m-1131 -80 c-7 -8 -17 -12 -22 -9
-4 3 -2 9 5 14 22 13 31 11 17 -5z m492 -26 c0 -5 -5 -10 -11 -10 -5 0 -7 5
-4 10 3 6 8 10 11 10 2 0 4 -4 4 -10z m-400 -24 c0 -11 -19 -15 -25 -6 -3 5 1
10 9 10 9 0 16 -2 16 -4z m455 -6 c3 -6 -1 -7 -9 -4 -18 7 -21 14 -7 14 6 0
13 -4 16 -10z m40 -28 c-3 -3 -11 0 -18 7 -9 10 -8 11 6 5 10 -3 15 -9 12 -12z
m-376 -23 c-18 -11 -52 -11 -45 0 3 5 17 9 32 9 18 0 22 -3 13 -9z m393 -8 c4
-3 -16 -7 -45 -8 -49 -2 -51 -2 -27 11 24 13 56 12 72 -3z m144 -37 c41 -20
73 -39 71 -41 -4 -4 -185 82 -196 93 -9 9 46 -14 125 -52z m-451 -4 c3 -5 1
-10 -4 -10 -6 0 -11 5 -11 10 0 6 2 10 4 10 3 0 8 -4 11 -10z m803 -27 c-10
-2 -28 -2 -40 0 -13 2 -5 4 17 4 22 1 32 -1 23 -4z m-75 -10 c-7 -2 -19 -2
-25 0 -7 3 -2 5 12 5 14 0 19 -2 13 -5z m507 -13 c-8 -5 -19 -10 -25 -10 -5 0
-3 5 5 10 8 5 20 10 25 10 6 0 3 -5 -5 -10z m-1113 -16 c-3 -3 -12 -4 -19 -1
-8 3 -5 6 6 6 11 1 17 -2 13 -5z m378 -3 c-18 -7 -17 -8 7 -13 15 -3 26 -2 25
2 -3 12 5 12 31 3 19 -7 17 -10 -22 -19 -25 -5 -43 -6 -40 -2 5 8 -26 12 -56
8 -22 -3 0 17 25 23 32 8 52 6 30 -2z m339 -2 c-25 -10 -72 -11 -77 -1 -3 4
18 7 46 8 32 0 44 -2 31 -7z m76 -14 c10 -12 10 -15 -3 -15 -8 0 -24 -3 -34
-6 -16 -6 -16 -5 2 9 19 15 17 15 -20 7 -48 -11 -60 -12 -52 -3 6 5 31 11 88
22 4 0 12 -6 19 -14z m-695 -35 c-12 -5 -14 -9 -6 -9 8 -1 12 -3 9 -6 -3 -3
-13 -2 -22 1 -14 5 -15 9 -4 15 7 5 20 8 28 8 10 0 8 -3 -5 -9z m1199 1 c26
-3 -11 -15 -57 -17 -50 -3 -51 -3 -22 10 26 11 41 13 79 7z m56 -32 c0 -16
-50 -21 -90 -9 -3 1 4 5 15 10 26 10 75 9 75 -1z m-1117 -56 c-7 -2 -19 -2
-25 0 -7 3 -2 5 12 5 14 0 19 -2 13 -5z m1390 -67 l39 -13 -43 -11 c-28 -7
-47 -8 -53 -2 -7 7 3 10 25 11 21 1 26 3 14 6 -22 5 -45 23 -29 23 5 0 26 -6
47 -14z m-1226 -12 c2 -7 -6 -10 -22 -6 -35 6 -44 24 -9 20 15 -2 29 -8 31
-14z m1308 -23 c18 -7 16 -9 -10 -14 -46 -8 -75 -7 -75 3 0 5 10 11 23 13 34
7 40 6 62 -2z m40 -26 c-16 -8 -39 -14 -50 -14 -13 0 -8 5 15 14 46 18 74 17
35 0z m65 -15 c0 -5 -7 -7 -16 -3 -8 3 -26 0 -40 -7 -13 -8 -27 -10 -30 -7 -9
8 34 26 64 26 12 1 22 -3 22 -9z m-1240 -19 c-28 -16 -60 -22 -60 -12 0 9 24
17 60 19 13 1 13 0 0 -7z m160 -81 c-8 -5 -24 -9 -35 -9 -20 0 -20 0 0 9 11 5
27 9 35 9 13 1 13 0 0 -9z"/>
<path d="M1037 2359 c-32 -25 -62 -78 -50 -89 4 -5 37 -10 73 -11 57 -2 71 1
108 26 23 15 42 31 42 35 0 3 -11 17 -25 30 -35 33 -110 38 -148 9z"/>
<path d="M536 2382 c-2 -4 -1 -14 5 -22 7 -12 9 -10 9 8 0 23 -5 28 -14 14z"/>
<path d="M600 2555 c0 -28 4 -35 20 -35 12 0 20 7 20 18 0 14 -2 15 -10 2 -6
-10 -10 -11 -10 -2 0 18 4 27 12 25 4 -2 5 4 2 12 -12 30 -34 16 -34 -20z"/>
<path d="M1790 1724 c45 -17 74 -24 64 -14 -5 5 -25 12 -44 15 -19 3 -28 3
-20 -1z"/>
<path d="M620 1145 c0 -2 23 -16 50 -30 28 -14 50 -23 50 -20 0 2 -22 16 -50
30 -27 14 -50 23 -50 20z"/>
<path d="M730 1086 c0 -7 153 -87 157 -82 3 3 -31 23 -76 45 -45 23 -81 39
-81 37z"/>
<path d="M900 996 c0 -8 90 -59 96 -54 2 3 -18 17 -46 32 -27 15 -50 25 -50
22z"/>
<path d="M1035 891 c6 -11 4 -13 -8 -8 -23 9 -21 0 2 -13 15 -7 19 -7 17 5 -1
8 -6 18 -11 22 -4 5 -5 2 0 -6z"/>
<path d="M1063 866 c0 -8 6 -12 15 -8 10 3 13 1 8 -6 -5 -8 -1 -10 10 -5 13 5
15 3 9 -7 -5 -8 -4 -11 3 -7 14 9 43 -3 36 -14 -3 -5 3 -6 12 -2 11 4 15 3 10
-5 -8 -13 23 -31 43 -24 8 3 11 0 7 -7 -5 -7 -1 -9 10 -4 13 5 15 3 9 -7 -5
-9 -4 -11 3 -6 7 4 12 3 12 -3 0 -6 6 -8 13 -5 7 2 24 -6 37 -18 14 -13 26
-22 27 -20 9 8 23 0 17 -10 -4 -6 -3 -8 4 -4 6 3 52 -16 103 -44 50 -27 96
-50 101 -50 5 0 6 -4 3 -10 -9 -15 83 -11 125 5 34 13 34 13 -25 8 -54 -5 -67
-2 -130 29 -76 37 -268 137 -381 199 -81 44 -81 44 -81 25z m132 -66 c3 -6 -1
-7 -9 -4 -18 7 -21 14 -7 14 6 0 13 -4 16 -10z"/>
<path d="M1751 686 c3 -17 78 -65 102 -66 22 -1 2 23 -30 37 -21 8 -46 22 -57
31 -17 16 -18 16 -15 -2z"/>
<path d="M2707 1273 c-4 -3 -7 -17 -7 -30 0 -16 6 -23 19 -23 11 0 22 4 26 9
8 14 41 5 92 -24 l44 -27 -16 31 c-8 17 -30 37 -48 44 -42 18 -102 29 -110 20z"/>
<path d="M2388 673 c7 -3 16 -2 19 1 4 3 -2 6 -13 5 -11 0 -14 -3 -6 -6z"/>
<path d="M1398 2957 c-1 -37 -2 -38 -5 -9 -6 48 -23 39 -23 -13 0 -25 5 -45
10 -45 6 0 10 5 10 12 0 8 3 9 10 2 13 -13 313 -6 318 7 2 5 26 9 53 9 31 0
48 -4 44 -10 -8 -12 5 -13 25 -1 8 6 19 7 25 3 5 -4 22 -7 37 -8 24 -1 26 2
30 43 4 48 -10 65 -36 44 -9 -8 -22 -8 -39 -2 -19 8 -28 6 -37 -5 -16 -19 -34
-18 -26 1 6 17 -19 21 -29 5 -3 -5 -11 -10 -16 -10 -6 0 -8 4 -5 9 8 12 -47 9
-56 -4 -5 -7 -11 -7 -15 0 -5 6 -67 11 -140 12 l-133 3 -2 -43z"/>
<path d="M1947 2958 c4 -51 8 -56 33 -40 12 7 20 8 20 2 0 -15 30 -12 31 3 4
52 3 71 -7 74 -6 2 -14 -6 -17 -18 -4 -14 -10 -18 -18 -13 -10 6 -10 9 -1 12
23 7 12 22 -16 22 -27 0 -28 -2 -25 -42z"/>
<path d="M2047 2960 c-5 -37 8 -64 26 -53 6 4 28 6 48 5 29 -2 38 1 42 18 5
20 47 29 47 10 0 -5 -7 -10 -15 -10 -8 0 -15 -4 -15 -8 0 -10 123 -8 139 2 6
4 11 4 11 -1 0 -4 26 -8 57 -7 60 1 71 10 72 60 1 21 -2 21 -203 20 l-204 0
-5 -36z m253 -10 c0 -5 -7 -10 -15 -10 -8 0 -15 5 -15 10 0 6 7 10 15 10 8 0
15 -4 15 -10z"/>
<path d="M2479 2993 c-9 -58 -7 -72 7 -77 9 -4 22 -2 28 2 6 5 43 8 81 7 75
-2 85 3 85 48 0 26 -2 27 -54 27 -44 0 -55 -4 -59 -17 -4 -17 -5 -17 -6 0 -1
13 -10 17 -41 17 -22 0 -41 -3 -41 -7z"/>
<path d="M2690 2971 l0 -29 88 -1 c48 0 117 -3 155 -7 l67 -6 0 36 0 36 -155
0 -155 0 0 -29z"/>
<path d="M2694 2918 c-3 -4 13 -8 35 -8 23 0 41 2 41 4 0 8 -71 12 -76 4z"/>
<path d="M2798 2913 c12 -2 30 -2 40 0 9 3 -1 5 -23 4 -22 0 -30 -2 -17 -4z"/>
<path d="M2408 2856 c-1 -2 -228 -6 -503 -10 -584 -8 -968 -17 -974 -22 -5 -4
1074 3 1599 11 173 3 350 5 393 5 46 0 77 4 77 10 0 7 -98 10 -294 10 -162 -1
-296 -3 -298 -4z"/>
<path d="M853 2813 c9 -2 25 -2 35 0 9 3 1 5 -18 5 -19 0 -27 -2 -17 -5z"/>
<path d="M1850 2721 c0 -10 11 -26 25 -35 42 -27 67 -89 62 -152 -3 -30 -1
-57 4 -60 23 -14 5 -23 -34 -18 -33 5 -47 2 -67 -14 -22 -18 -25 -29 -28 -104
-6 -127 -14 -123 253 -153 121 -14 249 -29 285 -34 36 -6 126 -17 200 -26 74
-9 178 -22 230 -30 52 -8 123 -17 156 -21 61 -6 62 -6 62 19 0 22 -6 27 -37
31 -55 9 -420 52 -776 91 -176 20 -325 37 -332 40 -13 4 -13 122 1 144 7 10
27 12 95 7 47 -3 290 -22 539 -41 249 -19 466 -35 482 -35 25 0 29 3 27 28
l-2 27 -180 12 c-551 36 -822 53 -837 53 -15 0 -16 4 -8 26 16 40 11 125 -9
169 -30 68 -111 123 -111 76z"/>
<path d="M2047 2723 c-3 -5 -6 -64 -8 -133 -4 -114 -3 -125 14 -128 34 -7 63
6 64 29 1 12 7 27 13 33 12 12 194 15 206 4 4 -4 10 -25 13 -45 6 -37 8 -38
46 -38 l40 0 0 140 0 140 -57 3 c-48 2 -58 0 -58 -13 0 -9 -7 -18 -15 -21 -25
-10 -17 -34 10 -34 18 0 25 5 25 20 0 11 5 20 10 20 14 0 13 -33 -2 -48 -7 -7
-25 -12 -41 -12 -29 0 -29 1 -23 43 7 44 7 44 -24 45 -23 0 -30 -3 -26 -13 3
-8 1 -17 -4 -20 -6 -4 -10 3 -10 15 0 30 -22 20 -31 -14 -6 -20 -4 -29 8 -33
8 -3 18 -1 22 5 4 6 12 7 20 3 21 -13 3 -31 -29 -31 -35 0 -45 13 -42 57 l3
33 -60 0 c-33 0 -62 -3 -64 -7z"/>
<path d="M2466 2722 c-8 -13 -9 -178 -2 -191 8 -12 52 -15 59 -3 3 4 8 51 12
105 l7 97 -35 0 c-20 0 -38 -4 -41 -8z"/>
<path d="M2787 2713 c-3 -10 -9 -59 -12 -108 l-7 -90 54 1 c29 1 81 2 116 3
58 1 62 2 62 25 0 23 -2 23 -90 22 -84 -1 -100 4 -100 29 0 1 43 0 95 -2 l95
-5 0 31 c0 17 -1 31 -3 31 -1 0 -16 -4 -34 -9 -22 -6 -33 -6 -36 2 -2 7 -13 7
-37 -2 -28 -9 -37 -9 -48 3 -21 20 -8 66 18 66 23 0 27 -15 5 -24 -8 -3 -15
-10 -15 -16 0 -14 48 -12 53 3 3 9 7 9 19 -1 9 -7 27 -10 47 -6 27 6 32 11 29
31 -3 25 -5 25 -105 30 -91 3 -102 2 -106 -14z"/>
<path d="M1964 2704 c1 -6 9 -23 19 -37 13 -20 17 -48 17 -114 0 -54 4 -83 9
-78 12 13 24 217 14 230 -11 14 -61 13 -59 -1z"/>
<path d="M2555 2653 c-9 -99 -24 -151 -46 -158 -10 -4 -24 -3 -30 1 -14 8 -29
-14 -28 -41 0 -15 2 -16 7 -5 9 19 53 20 67 2 14 -17 118 -20 138 -4 12 10 16
9 20 -8 4 -15 13 -19 38 -18 19 0 89 -3 157 -7 l123 -7 -3 43 c-3 39 -6 44
-28 45 -14 1 -54 3 -90 4 -51 3 -65 1 -65 -11 0 -8 -3 -15 -7 -16 -20 -7 -118
-2 -118 5 0 5 13 7 30 4 16 -2 37 -1 46 2 15 6 15 8 1 24 -14 15 -16 34 -11
110 5 84 4 92 -13 94 -10 0 -25 2 -33 3 -8 1 -21 -3 -27 -8 -9 -6 -13 -6 -13
2 0 7 -21 11 -54 11 l-54 0 -7 -67z m115 -89 c0 -8 -5 -12 -10 -9 -6 4 -8 11
-5 16 9 14 15 11 15 -7z"/>
<path d="M1890 2602 c11 -40 10 -34 10 -84 0 -54 9 -44 16 19 4 40 1 54 -15
74 l-20 24 9 -33z"/>
<path d="M2174 2520 c-47 -18 -54 -60 -11 -60 18 0 62 -3 100 -7 l67 -6 0 31
c0 17 -5 34 -12 38 -17 11 -120 13 -144 4z"/>
<path d="M2495 2440 c3 -5 8 -10 11 -10 2 0 4 5 4 10 0 6 -5 10 -11 10 -5 0
-7 -4 -4 -10z"/>
<path d="M1870 2340 c0 -27 -1 -53 -2 -57 -4 -9 45 -19 135 -27 40 -4 81 -9
92 -11 11 -2 49 -7 85 -10 36 -4 82 -8 102 -10 40 -5 50 8 53 69 1 16 9 35 19
42 16 11 15 13 -15 18 -31 5 -419 36 -454 36 -11 0 -15 -12 -15 -50z"/>
<path d="M2540 2312 c17 -23 18 -33 10 -62 -13 -45 -13 -50 4 -50 9 0 16 17
21 49 4 28 13 55 20 61 16 13 100 7 119 -9 7 -6 17 -6 26 -1 8 5 19 6 24 2 6
-3 47 -7 92 -8 108 -2 124 -11 117 -66 -3 -24 -10 -51 -15 -61 -6 -12 -5 -19
6 -23 28 -11 36 7 36 81 l0 73 -77 7 c-43 4 -94 8 -113 10 -19 2 -78 6 -130
10 -52 3 -110 8 -128 11 l-33 4 21 -28z"/>
<path d="M2355 2308 c3 -13 1 -37 -5 -52 -6 -16 -8 -32 -4 -35 4 -3 9 0 11 7
3 8 9 10 16 4 7 -5 26 -12 43 -15 31 -6 32 -5 39 38 3 25 11 45 16 45 6 0 8
-8 5 -17 -15 -52 -17 -73 -8 -73 6 0 14 20 18 45 3 26 10 42 16 39 6 -4 8 -24
5 -45 -3 -22 -2 -41 3 -44 10 -6 20 30 20 72 0 30 -2 32 -47 38 -146 18 -134
19 -128 -7z m27 -20 c-7 -7 -12 -8 -12 -2 0 6 3 14 7 17 3 4 9 5 12 2 2 -3 -1
-11 -7 -17z m23 -25 c-9 -37 -18 -20 -9 19 4 18 9 27 11 20 3 -7 2 -24 -2 -39z
m35 6 c-11 -39 -20 -49 -20 -23 0 31 12 64 20 59 5 -3 4 -19 0 -36z"/>
<path d="M2600 2264 c0 -18 -3 -40 -7 -50 -5 -13 -3 -16 10 -11 10 4 17 1 18
-6 1 -14 19 50 22 78 1 14 -4 20 -20 21 -20 1 -23 -4 -23 -32z m25 -14 c-4
-12 -9 -19 -12 -17 -3 3 -2 15 2 27 4 12 9 19 12 17 3 -3 2 -15 -2 -27z"/>
<path d="M2661 2285 c-1 -11 -4 -36 -7 -56 -5 -29 -3 -36 10 -36 9 0 16 7 17
16 0 10 4 8 9 -6 15 -37 20 -27 20 37 0 65 -13 79 -25 28 l-8 -33 -7 35 c-4
19 -8 26 -9 15z"/>
<path d="M2742 2278 c-15 -15 -16 -58 -2 -58 6 0 10 -4 10 -10 0 -5 -7 -7 -15
-4 -8 4 -15 1 -15 -5 0 -6 10 -11 21 -11 20 0 21 4 15 40 -4 25 -2 40 4 40 5
0 10 5 10 10 0 14 -13 13 -28 -2z"/>
<path d="M2792 2253 c-6 -16 -14 -39 -18 -53 -6 -22 -5 -23 10 -11 14 12 16
11 17 -5 2 -30 17 24 18 64 1 39 -13 42 -27 5z"/>
<path d="M2837 2245 c-9 -55 -9 -75 3 -75 6 0 10 9 10 19 0 11 5 23 11 27 9 5
10 -1 5 -20 -4 -17 -3 -25 3 -22 5 3 12 0 14 -6 3 -7 6 0 6 15 1 15 8 43 15
62 8 19 11 35 6 35 -4 0 -13 -12 -19 -27 l-11 -28 5 28 c3 15 1 27 -4 27 -5 0
-12 -12 -17 -27 l-7 -28 -7 30 c-6 30 -6 30 -13 -10z"/>
<path d="M2922 2253 c-19 -37 -22 -71 -8 -83 12 -9 18 -6 31 19 14 28 14 31 0
31 -19 0 -20 16 0 24 8 3 15 10 15 16 0 17 -29 11 -38 -7z m18 -47 c0 -3 -4
-8 -10 -11 -5 -3 -10 -1 -10 4 0 6 5 11 10 11 6 0 10 -2 10 -4z"/>
<path d="M1800 2156 c0 -46 3 -56 20 -60 11 -3 29 -9 40 -12 18 -5 20 -1 20
51 0 50 -2 57 -18 53 -10 -3 -23 1 -30 9 -23 24 -32 13 -32 -41z"/>
<path d="M1895 2150 c-7 -32 1 -70 15 -70 12 0 21 39 16 65 -3 11 -5 23 -5 28
-2 19 -20 4 -26 -23z"/>
<path d="M1230 2123 c0 -6 -14 -13 -30 -17 l-31 -6 21 -39 c12 -24 16 -42 10
-46 -6 -3 -10 -1 -10 4 0 6 -9 11 -21 11 -11 0 -17 -4 -14 -10 4 -6 -8 -10
-29 -10 -20 0 -36 -4 -36 -9 0 -6 23 -7 58 -4 31 4 69 7 83 7 22 1 24 4 15 19
-6 9 -14 17 -18 17 -4 0 -5 7 -2 15 4 8 10 12 15 9 10 -6 6 52 -4 63 -4 3 -7
2 -7 -4z m-10 -53 c0 -5 -2 -10 -4 -10 -3 0 -8 5 -11 10 -3 6 -1 10 4 10 6 0
11 -4 11 -10z"/>
<path d="M1060 2109 c0 -21 25 -70 40 -79 7 -4 27 -3 45 2 29 9 31 13 21 33
-7 16 -19 22 -44 23 -20 1 -40 9 -48 19 -12 16 -13 16 -14 2z"/>
<path d="M2626 2077 c-9 -36 -7 -117 4 -117 6 0 10 3 10 8 1 4 3 32 6 63 6 57
-8 90 -20 46z"/>
<path d="M2676 2054 c-6 -47 -8 -104 -3 -104 80 -13 77 -13 78 17 1 15 3 47 5
70 4 46 3 48 -42 57 -31 7 -31 6 -38 -40z"/>
<path d="M2782 2058 c-13 -16 -19 -89 -8 -106 9 -16 59 -15 75 1 10 10 12 9 9
-3 -2 -10 14 -18 57 -27 33 -7 66 -10 73 -8 8 3 12 26 12 69 0 55 -3 65 -17
65 -28 -1 -125 10 -159 17 -20 4 -34 1 -42 -8z"/>
<path d="M633 1964 c6 -107 26 -159 62 -166 14 -3 28 -2 30 3 12 18 -10 97
-36 130 -16 20 -26 39 -22 42 3 3 2 14 -2 24 -5 10 -8 20 -8 23 1 3 -6 11 -14
19 -13 12 -14 3 -10 -75z"/>
<path d="M1510 2000 c0 -16 61 -31 317 -79 147 -28 470 -91 717 -141 247 -49
451 -90 453 -90 3 0 3 5 1 12 -2 6 -65 24 -139 39 -1233 249 -1349 271 -1349
259z"/>
<path d="M1570 1950 c-20 -13 3 -20 188 -61 97 -21 281 -61 407 -89 365 -80
449 -99 630 -136 94 -19 178 -37 188 -40 13 -4 17 0 17 20 0 25 -11 30 -135
51 -16 3 -41 7 -55 10 -14 4 -59 12 -100 20 -41 7 -138 27 -215 44 -77 17
-185 40 -240 51 -55 11 -109 22 -120 24 -11 2 -40 9 -65 15 -25 5 -56 12 -70
15 -75 14 -350 68 -382 75 -20 4 -42 5 -48 1z"/>
<path d="M1006 1900 c12 -5 25 -13 29 -19 8 -14 25 -4 25 15 0 10 -11 14 -37
13 -32 0 -34 -2 -17 -9z"/>
<path d="M1078 1903 c7 -3 16 -2 19 1 4 3 -2 6 -13 5 -11 0 -14 -3 -6 -6z"/>
<path d="M1109 1891 c-77 -30 -148 -73 -155 -94 -5 -15 1 -27 22 -44 58 -47
64 -48 65 -6 1 21 1 41 0 46 0 4 3 7 9 7 6 0 10 6 10 14 0 16 40 69 47 62 3
-3 15 0 27 6 11 6 45 14 76 18 l55 7 -55 1 c-30 0 -76 -8 -101 -17z"/>
<path d="M812 1890 c-34 -4 -65 -10 -69 -13 -3 -4 2 -25 12 -46 15 -34 22 -40
46 -38 22 2 30 8 35 30 5 25 34 40 34 17 0 -5 5 -10 10 -10 6 0 10 16 10 35 0
19 -3 34 -7 34 -5 -1 -36 -5 -71 -9z"/>
<path d="M913 1864 c4 -21 7 -49 7 -61 0 -34 17 -28 29 10 7 21 8 42 1 62 -9
28 -9 27 -5 -10 4 -29 3 -36 -4 -25 -6 8 -11 23 -11 32 0 9 -5 20 -12 24 -8 5
-9 -4 -5 -32z"/>
<path d="M1176 1875 c-21 -6 -50 -24 -64 -41 -14 -16 -23 -21 -19 -11 20 50
20 52 7 40 -7 -6 -19 -46 -26 -89 -14 -78 -35 -124 -57 -124 -8 0 -8 3 2 9 21
13 -66 13 -121 -1 -27 -7 -48 -15 -48 -18 0 -10 174 -89 212 -96 18 -4 57 -22
86 -41 53 -35 53 -35 116 -24 83 14 96 14 96 -4 0 -16 16 -20 24 -6 12 19 -45
39 -193 70 -84 17 -165 40 -179 50 -15 10 -40 26 -55 35 -16 10 -25 21 -21 24
3 4 9 2 11 -4 2 -7 14 -10 26 -7 16 3 18 2 9 -5 -11 -7 -8 -10 12 -14 14 -3
27 -1 29 5 5 15 75 19 127 8 96 -21 137 -23 153 -6 10 9 18 11 22 5 4 -6 11
-7 17 -4 7 4 8 2 4 -4 -9 -14 12 -55 24 -47 5 3 11 1 15 -5 3 -5 10 -10 15
-10 17 0 -40 73 -68 87 -22 12 -33 13 -60 3 -25 -9 -45 -9 -82 0 -54 13 -89
40 -52 40 31 0 34 13 11 56 -10 21 -18 46 -15 54 2 8 4 4 5 -9 1 -19 4 -21 15
-12 12 10 13 9 9 -8 -3 -10 0 -28 6 -38 8 -15 11 -10 11 27 1 40 2 42 11 20 6
-13 8 -36 5 -50 -5 -22 -4 -21 9 5 8 17 14 23 14 15 0 -8 -6 -26 -14 -40 -18
-32 -18 -40 -1 -40 8 0 17 8 19 18 4 13 5 11 6 -5 1 -26 9 -28 45 -11 22 9 33
7 71 -13 25 -13 43 -29 41 -36 -6 -16 23 -21 62 -11 26 7 32 13 27 26 -4 12
-3 14 5 6 14 -14 3 -41 -21 -47 -26 -7 -25 -28 2 -24 27 4 55 55 51 94 l-3 31
-53 -5 c-35 -4 -61 -1 -77 8 -13 7 -46 16 -74 19 -41 4 -53 10 -71 37 -12 18
-24 29 -28 26 -9 -10 -7 28 4 66 5 19 9 35 7 36 -1 1 -19 -4 -41 -10z m264
-225 c-24 -15 -36 -11 -14 4 10 8 21 12 24 10 2 -3 -2 -9 -10 -14z"/>
<path d="M980 1870 c8 -5 20 -10 25 -10 6 0 3 5 -5 10 -8 5 -19 10 -25 10 -5
0 -3 -5 5 -10z"/>
<path d="M1324 1848 c-7 -11 4 -58 18 -75 6 -7 26 -13 44 -13 27 0 34 4 36 20
0 11 1 25 2 32 1 16 -92 49 -100 36z"/>
<path d="M1518 1824 c-4 -6 -21 -9 -38 -6 -26 4 -30 1 -30 -18 0 -21 1 -21 24
-7 17 12 26 13 34 5 15 -15 25 -5 20 19 -2 11 -6 14 -10 7z"/>
<path d="M920 1745 c0 -8 9 -15 19 -15 11 0 23 -9 26 -20 5 -14 15 -20 38 -20
l31 0 -20 21 c-19 19 -38 26 -72 28 -7 1 -10 6 -7 11 3 6 1 10 -4 10 -6 0 -11
-7 -11 -15z"/>
<path d="M0 1689 c0 -20 24 -25 48 -10 10 6 6 11 -17 19 -28 10 -31 9 -31 -9z"/>
<path d="M1533 1620 c-19 -8 -33 -30 -19 -30 15 0 66 24 66 31 0 11 -18 11
-47 -1z"/>
<path d="M1310 1611 c0 -7 -5 -9 -11 -5 -16 9 6 -29 25 -45 29 -25 37 -6 11
29 -14 18 -25 28 -25 21z"/>
<path d="M1030 1602 c0 -15 54 -25 133 -24 37 0 69 -4 72 -9 4 -5 -9 -6 -27
-3 -25 4 -29 3 -18 -5 25 -18 80 -14 80 6 0 14 2 14 21 -3 22 -19 22 -19 11 3
-13 24 -35 29 -179 39 -61 4 -93 3 -93 -4z"/>
<path d="M912 1563 c20 -21 62 -74 93 -118 32 -44 55 -71 51 -60 -5 11 -10 46
-13 78 l-6 59 -64 30 c-35 17 -66 35 -69 39 -3 5 -10 9 -17 9 -6 0 5 -17 25
-37z"/>
<path d="M1578 1593 c7 -3 16 -2 19 1 4 3 -2 6 -13 5 -11 0 -14 -3 -6 -6z"/>
<path d="M1935 1550 c-3 -5 -1 -10 4 -10 6 0 11 5 11 10 0 6 -2 10 -4 10 -3 0
-8 -4 -11 -10z"/>
<path d="M1055 1510 c-10 -31 17 -158 38 -181 10 -10 29 -19 44 -19 l25 0 -7
67 c-4 37 -11 78 -17 92 -21 57 -70 81 -83 41z m75 -100 c14 -85 12 -95 -18
-75 -15 11 -22 26 -22 50 0 19 -4 37 -10 40 -11 7 -13 55 -3 81 12 31 40 -20
53 -96z"/>
<path d="M1088 1474 c-3 -5 -1 -20 5 -34 8 -20 11 -22 14 -8 5 20 -12 55 -19
42z"/>
<path d="M1100 1366 c0 -8 5 -18 10 -21 6 -3 10 3 10 14 0 12 -4 21 -10 21 -5
0 -10 -6 -10 -14z"/>
<path d="M1318 1473 c7 -3 16 -2 19 1 4 3 -2 6 -13 5 -11 0 -14 -3 -6 -6z"/>
<path d="M1268 1463 c7 -3 16 -2 19 1 4 3 -2 6 -13 5 -11 0 -14 -3 -6 -6z"/>
<path d="M1288 1442 c-24 -5 -23 -22 5 -63 18 -27 30 -35 61 -37 40 -3 56 8
56 41 0 10 -7 17 -18 17 -9 0 -33 10 -52 23 -19 13 -43 21 -52 19z"/>
<path d="M1507 1439 c-37 -22 -62 -89 -62 -169 0 -64 5 -85 30 -135 20 -40 41
-66 63 -79 33 -18 34 -18 60 1 96 72 94 277 -4 362 -36 32 -57 37 -87 20z m10
-30 c-25 -15 -47 -62 -48 -106 -2 -32 -3 -34 -6 -9 -3 15 -2 38 1 51 7 28 44
75 59 75 7 0 4 -5 -6 -11z m109 -63 c27 -57 34 -172 12 -194 -16 -16 -43 -15
-58 3 -16 19 -50 19 -76 1 -18 -14 -18 -15 10 -45 37 -38 69 -39 103 -3 22 23
24 23 14 4 -40 -77 -121 -54 -157 45 -7 21 -13 52 -13 68 1 28 1 28 14 -10 7
-22 13 -35 14 -30 1 6 5 5 9 -2 5 -8 12 -9 22 -2 10 5 11 12 5 17 -5 4 -11 24
-13 44 -3 30 2 43 23 64 22 22 28 24 42 13 13 -12 15 -8 12 38 -5 61 5 58 37
-11z"/>
<path d="M1621 1288 c-1 -21 -5 -38 -11 -38 -5 0 -10 -9 -10 -20 0 -11 -4 -20
-8 -20 -4 0 -6 15 -4 33 3 23 -2 39 -14 52 -17 17 -19 17 -36 -5 -22 -28 -17
-50 25 -103 44 -54 61 -46 67 30 3 34 2 72 -2 85 -5 18 -6 15 -7 -14z m-43
-42 c-2 -12 -10 -21 -18 -21 -16 0 -25 28 -16 52 9 23 38 -4 34 -31z"/>
<path d="M1551 1244 c0 -11 3 -14 6 -6 3 7 2 16 -1 19 -3 4 -6 -2 -5 -13z"/>
<path d="M1600 1445 c0 -2 10 -10 23 -16 20 -11 21 -11 8 4 -13 16 -31 23 -31
12z"/>
<path d="M2337 1444 c-14 -15 -7 -26 9 -13 13 10 19 10 36 0 16 -10 19 -10 16
1 -5 14 -50 23 -61 12z"/>
<path d="M2315 1403 c16 -3 34 -12 41 -20 6 -9 16 -13 23 -9 24 15 4 29 -45
32 -27 1 -36 0 -19 -3z"/>
<path d="M636 1369 c3 -5 12 -9 21 -9 19 0 9 13 -12 16 -8 1 -13 -2 -9 -7z"/>
<path d="M1880 1330 c0 -5 2 -10 4 -10 2 0 20 -7 40 -15 48 -20 46 -10 -4 15
-22 11 -40 16 -40 10z"/>
<path d="M2325 1280 c-12 -4 -27 -16 -35 -25 -13 -15 -11 -20 17 -45 29 -26
35 -28 63 -17 19 7 28 17 25 25 -3 8 -5 18 -5 24 0 6 -6 5 -15 -2 -11 -9 -19
-10 -26 -3 -8 8 -6 14 8 21 23 13 83 -13 83 -35 0 -7 16 -23 35 -34 19 -12 32
-25 29 -30 -9 -15 -52 -10 -62 7 -6 11 -16 13 -35 9 -43 -11 -41 -22 8 -40 50
-20 109 -15 134 10 14 13 11 20 -29 60 -70 71 -140 98 -195 75z"/>
<path d="M82 1173 c-21 -8 -2 -23 31 -23 49 0 82 11 65 21 -14 9 -75 11 -96 2z"/>
<path d="M0 1161 c0 -6 5 -11 11 -11 5 0 7 -4 4 -10 -3 -5 -1 -10 4 -10 16 0
13 16 -4 30 -10 9 -15 9 -15 1z"/>
<path d="M240 1166 c0 -2 7 -9 15 -16 12 -10 15 -10 15 4 0 9 -7 16 -15 16 -8
0 -15 -2 -15 -4z"/>
<path d="M60 1146 c0 -2 8 -10 18 -17 15 -13 16 -12 3 4 -13 16 -21 21 -21 13z"/>
<path d="M170 1141 c0 -4 -12 -6 -26 -3 -19 3 -25 1 -20 -7 4 -6 34 -11 74
-11 61 1 65 2 48 15 -21 16 -76 21 -76 6z"/>
<path d="M30 1111 c-29 -7 -39 -38 -15 -47 8 -4 41 -3 72 1 55 7 56 7 33 21
-31 17 -43 18 -34 2 4 -8 3 -10 -2 -5 -5 5 -9 14 -9 20 0 13 -14 16 -45 8z"/>
<path d="M170 1101 c0 -5 6 -11 13 -14 20 -7 117 5 111 14 -7 12 -124 12 -124
0z"/>
<path d="M273 1082 c-57 -3 -69 -16 -27 -26 15 -4 33 -14 41 -21 15 -16 79
-18 123 -6 l25 7 -25 9 c-14 4 -47 8 -75 8 -49 -1 -49 -1 -10 6 35 5 37 8 20
16 -11 6 -44 9 -72 7z"/>
<path d="M85 1051 c-52 -8 -29 -26 30 -22 58 3 81 11 64 22 -15 9 -32 9 -94 0z"/>
<path d="M0 1020 c0 -5 5 -10 11 -10 5 0 7 5 4 10 -3 6 -8 10 -11 10 -2 0 -4
-4 -4 -10z"/>
<path d="M185 1020 c4 -7 -8 -8 -34 -4 -26 4 -41 3 -41 -4 0 -17 29 -22 87
-15 50 5 54 8 38 20 -22 15 -59 18 -50 3z"/>
<path d="M388 1013 c-31 -3 -48 -9 -52 -20 -4 -9 -4 -18 -1 -21 3 -3 5 0 5 7
0 8 10 10 33 6 19 -4 54 -1 78 5 37 11 41 14 24 21 -11 4 -24 7 -30 6 -5 0
-31 -2 -57 -4z"/>
<path d="M500 1010 c0 -6 7 -10 15 -10 8 0 15 2 15 4 0 2 -7 6 -15 10 -8 3
-15 1 -15 -4z"/>
<path d="M25 991 c-28 -8 -30 -31 -3 -30 13 0 31 4 40 7 17 7 17 8 0 18 -9 6
-26 8 -37 5z"/>
<path d="M205 986 c-68 -16 -42 -30 37 -21 56 7 60 9 43 21 -10 8 -21 14 -24
13 -3 0 -28 -6 -56 -13z"/>
<path d="M550 991 c0 -6 5 -13 10 -16 6 -3 10 1 10 9 0 9 -4 16 -10 16 -5 0
-10 -4 -10 -9z"/>
<path d="M453 973 c-42 -4 -62 -23 -24 -23 42 0 111 13 111 21 0 9 -6 9 -87 2z"/>
<path d="M580 970 c0 -5 5 -10 11 -10 5 0 7 5 4 10 -3 6 -8 10 -11 10 -2 0 -4
-4 -4 -10z"/>
<path d="M253 953 c-38 -5 -41 -13 -12 -31 16 -10 32 -11 76 -2 34 8 52 15 46
21 -12 12 -68 18 -110 12z"/>
<path d="M20 939 l-25 -10 24 -20 c13 -10 35 -19 50 -19 39 0 101 12 101 19 0
3 -14 14 -31 24 -34 19 -80 21 -119 6z m96 -26 c-6 -6 -36 9 -36 18 0 5 9 4
20 -3 10 -7 18 -14 16 -15z m-51 7 c-3 -5 -10 -10 -16 -10 -5 0 -9 5 -9 10 0
6 7 10 16 10 8 0 12 -4 9 -10z"/>
<path d="M174 935 c11 -8 22 -12 25 -9 6 6 -19 24 -34 24 -5 -1 -1 -7 9 -15z"/>
<path d="M508 943 c-44 -5 -50 -18 -12 -27 30 -8 114 3 114 14 0 8 -38 21 -55
18 -5 -1 -27 -3 -47 -5z"/>
<path d="M414 931 c4 -6 16 -16 28 -22 15 -8 18 -8 14 0 -4 6 -16 16 -28 22
-15 8 -18 8 -14 0z"/>
<path d="M338 908 c-27 -6 -48 -14 -48 -18 0 -21 65 -22 134 -3 18 5 18 6 -5
19 -13 7 -26 13 -29 12 -3 0 -26 -5 -52 -10z"/>
<path d="M235 890 c21 -24 26 -25 19 -6 -3 8 -13 17 -22 21 -13 5 -13 2 3 -15z"/>
<path d="M470 895 c0 -8 2 -15 4 -15 2 0 11 -3 20 -6 23 -9 20 13 -4 26 -16 9
-20 8 -20 -5z"/>
<path d="M574 903 c-26 -3 -31 -8 -32 -33 -1 -24 6 -33 34 -46 19 -9 34 -20
34 -25 0 -12 -6 -11 -40 6 -24 13 -37 13 -82 2 -46 -10 -53 -15 -56 -39 -2
-18 4 -31 20 -42 31 -22 37 -1 7 30 -12 13 -17 24 -11 24 6 0 14 -5 18 -11 4
-8 25 -9 61 -5 97 11 120 39 58 69 -19 9 -35 21 -35 27 0 14 13 13 36 -4 10
-8 28 -13 39 -11 11 2 38 7 60 10 l40 7 -40 24 c-39 23 -48 25 -111 17z m86
-19 c0 -2 -7 -4 -15 -4 -8 0 -15 4 -15 10 0 5 7 7 15 4 8 -4 15 -8 15 -10z
m-43 -10 c-3 -3 -12 -4 -19 -1 -8 3 -5 6 6 6 11 1 17 -2 13 -5z m-67 -82 c0
-4 -16 -8 -35 -8 -21 0 -30 3 -22 8 16 10 57 10 57 0z"/>
<path d="M0 890 c0 -5 7 -10 16 -10 8 0 12 5 9 10 -3 6 -10 10 -16 10 -5 0 -9
-4 -9 -10z"/>
<path d="M170 889 c-14 -4 -40 -7 -57 -8 -26 -1 -34 -6 -39 -27 -5 -18 -1 -29
12 -39 39 -29 46 -14 12 23 -21 23 -21 25 -3 18 26 -9 146 4 139 15 -10 17
-39 26 -64 18z"/>
<path d="M725 880 c3 -5 10 -10 16 -10 5 0 9 5 9 10 0 6 -7 10 -16 10 -8 0
-12 -4 -9 -10z"/>
<path d="M403 867 c-29 -6 -53 -13 -53 -17 0 -3 15 -13 33 -21 24 -12 43 -13
80 -6 26 5 47 12 47 16 0 4 -12 14 -27 22 -22 12 -39 13 -80 6z m72 -17 c7
-12 -12 -12 -40 0 -18 8 -17 9 7 9 15 1 30 -3 33 -9z m-65 -10 c0 -5 -2 -10
-4 -10 -3 0 -8 5 -11 10 -3 6 -1 10 4 10 6 0 11 -4 11 -10z"/>
<path d="M521 864 c0 -11 3 -14 6 -6 3 7 2 16 -1 19 -3 4 -6 -2 -5 -13z"/>
<path d="M291 848 c13 -13 26 -19 28 -14 4 10 -27 36 -42 36 -6 0 1 -10 14
-22z"/>
<path d="M770 860 c0 -5 5 -10 10 -10 6 0 10 5 10 10 0 6 -4 10 -10 10 -5 0
-10 -4 -10 -10z"/>
<path d="M0 846 c0 -9 5 -16 10 -16 6 0 10 4 10 9 0 6 -4 13 -10 16 -5 3 -10
-1 -10 -9z"/>
<path d="M225 845 c-5 -2 -27 -6 -49 -10 -38 -6 -38 -6 -16 -22 23 -16 60 -19
111 -8 36 8 37 18 4 33 -26 12 -32 13 -50 7z m23 -22 c-10 -2 -26 -2 -35 0
-10 3 -2 5 17 5 19 0 27 -2 18 -5z"/>
<path d="M673 833 c-30 -6 -29 -15 5 -35 20 -12 40 -14 79 -9 66 9 73 16 34
35 -29 15 -70 18 -118 9z m82 -12 c3 -5 0 -13 -6 -17 -7 -4 -9 -3 -5 4 3 5 0
13 -6 15 -9 4 -10 6 -1 6 6 1 14 -3 18 -8z m-35 -5 c0 -2 -7 -7 -16 -10 -8 -3
-12 -2 -9 4 6 10 25 14 25 6z"/>
<path d="M820 831 c0 -6 5 -13 10 -16 6 -3 10 1 10 9 0 9 -4 16 -10 16 -5 0
-10 -4 -10 -9z"/>
<path d="M13 823 c-7 -2 -13 -13 -13 -24 0 -17 5 -19 38 -13 47 9 50 11 26 29
-20 15 -31 17 -51 8z"/>
<path d="M850 823 c0 -5 15 -17 33 -27 17 -10 40 -28 49 -40 l18 -21 0 25 c0
23 -26 43 -70 54 -3 1 -11 5 -17 9 -7 5 -13 4 -13 0z"/>
<path d="M350 812 c0 -12 34 -42 48 -42 20 0 13 17 -13 34 -27 18 -35 20 -35
8z"/>
<path d="M130 797 c0 -19 31 -44 53 -44 15 0 13 5 -12 29 -34 31 -41 34 -41
15z"/>
<path d="M268 787 c-54 -12 -68 -34 -47 -76 23 -45 30 -52 44 -41 10 8 19 3
35 -20 24 -34 40 -39 40 -11 0 22 -64 66 -80 56 -5 -3 -10 1 -10 11 0 9 -8 23
-17 30 -10 7 -15 16 -11 20 4 4 14 1 23 -6 16 -13 125 -5 125 10 0 7 -46 42
-52 39 -2 -1 -24 -6 -50 -12z"/>
<path d="M640 789 c0 -8 14 -22 31 -32 41 -23 31 -34 -11 -12 -27 14 -39 14
-86 4 -30 -7 -54 -15 -54 -18 0 -4 12 -13 26 -22 23 -14 34 -14 85 -4 32 7 66
18 74 25 10 9 15 9 15 1 0 -6 3 -10 8 -8 4 1 17 -7 29 -18 38 -35 53 -46 53
-38 0 4 5 2 11 -4 6 -6 18 -9 25 -6 9 3 14 -2 14 -13 0 -18 55 -60 73 -56 4 1
7 -3 7 -8 0 -6 5 -10 10 -10 6 0 10 7 10 15 0 8 -7 15 -15 15 -8 0 -15 6 -15
13 -1 10 -86 72 -101 72 -3 0 -33 17 -67 38 -34 21 -64 37 -68 37 -4 -1 -10 2
-13 7 -3 4 -14 14 -23 22 -15 11 -18 11 -18 0z m-40 -63 c-38 -13 -54 -11 -30
4 8 6 26 10 40 9 22 0 20 -2 -10 -13z"/>
<path d="M42 768 c-37 -8 -41 -12 -31 -24 10 -12 24 -14 63 -9 64 9 72 14 49
31 -21 15 -22 15 -81 2z"/>
<path d="M783 773 c-18 -2 -33 -8 -33 -13 0 -5 15 -17 33 -28 28 -18 39 -19
90 -10 31 5 57 13 57 17 0 12 -69 41 -93 39 -12 0 -37 -3 -54 -5z m77 -25 c0
-13 -23 -5 -28 10 -2 7 2 10 12 6 9 -3 16 -11 16 -16z m-55 2 c-3 -5 -11 -10
-16 -10 -6 0 -7 5 -4 10 3 6 11 10 16 10 6 0 7 -4 4 -10z"/>
<path d="M960 762 c1 -13 100 -73 100 -60 0 7 -15 22 -33 33 -43 26 -67 36
-67 27z"/>
<path d="M101 726 l-54 -12 28 -22 c32 -26 29 -25 96 -11 l52 11 -29 24 c-16
13 -31 23 -34 22 -3 0 -29 -6 -59 -12z m22 -23 c-7 -2 -19 -2 -25 0 -7 3 -2 5
12 5 14 0 19 -2 13 -5z"/>
<path d="M332 726 l-44 -11 32 -23 c30 -22 33 -23 92 -10 l62 14 -36 22 c-39
24 -45 25 -106 8z m78 -26 c-19 -12 -63 -13 -56 -2 3 5 20 9 38 10 23 1 28 -2
18 -8z"/>
<path d="M0 702 c0 -21 17 -44 70 -97 39 -39 72 -68 73 -65 2 3 34 -22 71 -55
38 -33 73 -59 78 -57 5 1 7 -1 4 -6 -7 -11 2 -21 55 -64 40 -32 45 -41 41 -67
-3 -26 -1 -30 12 -25 9 3 16 11 16 17 0 6 15 -3 33 -21 38 -36 57 -41 57 -13
0 26 46 61 81 61 30 0 34 6 20 28 -6 11 -10 10 -19 -1 -7 -8 -34 -14 -64 -16
-46 -1 -57 2 -85 28 -18 16 -33 27 -33 23 0 -3 -8 4 -17 17 -28 36 -49 58 -68
69 -10 5 -19 20 -20 33 -1 17 -8 24 -23 25 -18 1 -36 13 -99 64 -7 6 -16 10
-22 10 -19 0 -20 31 -1 50 22 22 15 25 -24 10 -17 -6 -26 -6 -26 0 0 6 -6 10
-13 10 -7 0 -23 9 -35 20 -14 14 -22 16 -22 8 -1 -7 -8 -1 -16 15 -19 34 -24
34 -24 -1z"/>
<path d="M491 704 c0 -11 3 -14 6 -6 3 7 2 16 -1 19 -3 4 -6 -2 -5 -13z"/>
<path d="M908 708 c-21 -6 -38 -14 -38 -18 0 -14 49 -40 77 -40 41 0 103 12
103 19 0 11 -70 51 -87 50 -10 -1 -35 -6 -55 -11z m62 -30 c0 -5 -9 -8 -19 -8
-11 0 -22 3 -24 8 -3 4 6 7 19 7 13 0 24 -3 24 -7z"/>
<path d="M517 693 c7 -18 53 -62 66 -63 24 -1 -15 49 -55 71 -14 8 -16 6 -11
-8z"/>
<path d="M1070 702 c0 -15 39 -51 56 -52 6 0 17 -7 24 -15 7 -9 19 -14 26 -11
7 3 15 -2 18 -10 3 -9 10 -12 16 -9 5 3 10 2 10 -3 0 -9 67 -46 85 -47 6 0 16
-8 23 -17 18 -24 32 -23 32 3 0 13 -4 18 -12 13 -8 -5 -7 0 2 11 14 16 13 17
-7 11 -22 -7 -44 2 -168 68 -65 34 -88 49 -97 61 -5 6 -8 5 -8 -3z"/>
<path d="M653 688 c-24 -5 -43 -13 -43 -18 0 -5 15 -18 34 -29 31 -20 37 -20
97 -8 l64 13 -42 27 c-46 29 -48 29 -110 15z m71 -14 c22 -8 10 -24 -17 -23
-20 1 -21 2 -2 7 20 5 20 5 0 13 -11 4 -15 8 -8 8 6 1 18 -2 27 -5z m-44 -20
c0 -14 -3 -14 -15 -4 -8 7 -15 14 -15 16 0 2 7 4 15 4 8 0 15 -7 15 -16z"/>
<path d="M2156 679 c3 -6 25 -19 48 -29 22 -10 136 -64 251 -120 301 -146 423
-200 454 -200 47 0 91 20 91 41 0 22 -11 23 -65 4 -22 -8 -41 -15 -42 -15 -1
0 -8 6 -15 13 -7 7 -58 33 -113 57 -55 24 -104 48 -109 52 -6 4 -17 8 -26 8
-20 0 -119 48 -145 70 -11 10 -29 20 -40 23 -11 3 -75 28 -143 56 -121 51
-159 61 -146 40z"/>
<path d="M215 671 c-3 -5 -1 -12 5 -16 5 -3 10 1 10 9 0 18 -6 21 -15 7z"/>
<path d="M430 667 c-25 -5 -47 -12 -50 -14 -3 -3 8 -15 23 -27 27 -22 31 -22
84 -10 30 7 57 15 60 17 4 5 -61 48 -68 46 -2 -1 -24 -6 -49 -12z m45 -17 c-3
-5 -1 -10 4 -10 6 0 11 5 11 11 0 5 5 7 11 4 15 -10 6 -15 -35 -25 -24 -5 -38
-4 -43 4 -3 6 -3 8 2 4 4 -4 17 -1 29 7 24 18 29 19 21 5z"/>
<path d="M1022 637 c-24 -7 -43 -16 -43 -21 -1 -12 58 -46 80 -46 11 0 42 5
70 12 l50 11 -45 29 c-49 31 -50 31 -112 15z m33 -27 c-28 -12 -37 -12 -30 0
3 6 16 10 28 9 21 0 21 -1 2 -9z"/>
<path d="M183 633 c-13 -2 -23 -8 -23 -13 0 -5 10 -15 23 -21 12 -7 35 -23 50
-35 32 -27 53 -29 110 -13 l39 10 -53 40 c-53 39 -79 45 -146 32z m86 -17 c-2
-2 -20 -6 -39 -10 -25 -4 -31 -3 -20 4 14 9 69 15 59 6z m30 -37 c-24 -15 -45
-11 -24 5 11 8 24 12 28 9 5 -3 3 -9 -4 -14z"/>
<path d="M607 620 c3 -10 13 -22 23 -25 17 -6 36 -35 23 -35 -4 0 -23 11 -42
24 -33 23 -40 23 -89 13 -57 -12 -60 -20 -20 -50 22 -16 35 -18 83 -12 35 4
64 14 76 26 15 15 19 16 19 4 0 -8 5 -15 11 -15 6 0 8 7 5 16 -3 9 -6 20 -6
25 0 5 -6 9 -12 9 -7 0 -24 9 -38 20 -32 25 -39 25 -33 0z m-37 -40 c-12 -8
-10 -10 10 -11 22 -1 20 -2 -9 -11 -18 -5 -41 -6 -50 -2 -13 5 -10 9 14 20 35
15 57 18 35 4z"/>
<path d="M538 563 c7 -3 16 -2 19 1 4 3 -2 6 -13 5 -11 0 -14 -3 -6 -6z"/>
<path d="M370 614 c0 -32 24 -74 40 -72 8 1 21 -1 28 -5 8 -6 12 -1 12 13 0
16 -5 20 -15 16 -9 -3 -15 0 -15 8 0 7 -11 23 -25 36 -24 22 -25 22 -25 4z"/>
<path d="M772 616 c-29 -6 -53 -15 -52 -21 0 -5 17 -20 38 -31 33 -19 42 -20
90 -10 29 6 52 16 51 21 -1 6 -18 19 -38 31 -32 19 -42 20 -89 10z m71 -32
c-3 -8 -13 -14 -22 -14 -14 0 -14 2 -1 10 13 8 13 10 -2 10 -9 0 -20 -4 -23
-10 -7 -12 -25 -13 -25 -2 0 11 52 30 67 24 6 -2 9 -10 6 -18z"/>
<path d="M0 510 l0 -111 48 -51 c86 -95 93 -99 137 -94 35 4 38 3 22 -9 -18
-13 -18 -14 2 -34 l21 -21 25 24 c26 24 26 24 5 31 -15 5 -19 10 -12 17 7 7
18 5 33 -6 31 -21 42 -20 34 4 -5 17 -2 20 20 20 15 0 24 -4 20 -10 -3 -5 1
-10 10 -10 13 0 14 4 4 21 -6 12 -23 33 -38 47 -14 13 -17 18 -6 11 19 -13 19
-13 6 4 -8 10 -20 16 -28 13 -7 -3 -13 -2 -13 2 0 9 -252 241 -276 255 -12 7
-14 -12 -14 -103z m257 -187 c-13 -3 -17 -11 -14 -24 3 -12 0 -19 -10 -19 -8
0 -12 3 -10 8 2 4 7 15 10 25 4 9 14 16 24 16 17 -1 17 -2 0 -6z m38 -23 c3
-5 1 -10 -4 -10 -6 0 -11 5 -11 10 0 6 2 10 4 10 3 0 8 -4 11 -10z"/>
<path d="M970 571 c0 -12 8 -24 18 -28 9 -3 25 -13 35 -21 9 -8 20 -13 23 -9
3 3 25 -13 48 -36 23 -23 61 -52 84 -64 40 -21 42 -21 42 -3 0 23 -22 46 -63
66 -44 20 -74 38 -94 56 -10 8 -35 25 -55 37 l-38 23 0 -21z"/>
<path d="M1141 566 c-25 -6 -46 -16 -47 -21 -2 -6 18 -23 44 -39 46 -28 48
-28 112 -16 36 7 69 15 73 17 10 6 -108 73 -126 72 -6 -1 -32 -6 -56 -13z m53
-21 c-18 -13 -17 -14 16 -12 36 2 55 -16 23 -21 -15 -3 -16 -1 -3 8 13 9 12
10 -5 7 -11 -2 -19 -8 -18 -15 3 -13 -28 -4 -39 12 -12 17 -9 24 10 29 32 9
36 7 16 -8z"/>
<path d="M710 546 c0 -22 30 -51 60 -58 6 -2 30 -20 53 -41 23 -22 58 -48 79
-58 21 -11 38 -25 38 -32 0 -7 30 -34 66 -60 52 -38 69 -45 80 -36 15 12 9 33
-7 24 -5 -3 -6 1 -3 9 4 10 -15 27 -60 56 -36 23 -66 47 -66 54 0 7 -6 13 -13
13 -8 0 -35 14 -60 32 -29 20 -47 27 -47 19 -1 -7 -8 3 -16 22 -12 27 -17 32
-24 20 -9 -13 -10 -13 -10 0 0 8 -16 25 -35 38 l-35 22 0 -24z m257 -198 c-3
-8 -6 -5 -6 6 -1 11 2 17 5 13 3 -3 4 -12 1 -19z"/>
<path d="M460 531 c0 -11 8 -26 18 -33 10 -7 21 -21 25 -30 7 -21 27 -24 27
-5 0 8 4 7 10 -3 7 -12 10 -8 10 14 0 16 -3 27 -6 23 -3 -3 -20 7 -38 23 -36
35 -46 37 -46 11z"/>
<path d="M884 541 c-69 -17 -69 -29 -5 -71 49 -31 50 -31 111 -19 33 6 63 15
65 19 6 9 -108 80 -127 79 -7 -1 -27 -4 -44 -8z m41 -31 c-19 -8 -19 -9 3 -9
12 -1 22 4 22 9 0 6 5 10 10 10 23 0 7 -20 -22 -28 -41 -11 -85 8 -46 20 34 9
57 8 33 -2z"/>
<path d="M1370 517 c0 -16 88 -73 97 -63 3 3 12 -2 19 -12 12 -16 13 -15 14 6
0 18 -12 28 -57 50 -32 14 -61 28 -65 30 -5 2 -8 -3 -8 -11z"/>
<path d="M405 515 c-5 -2 -27 -6 -47 -10 -21 -3 -38 -9 -38 -13 0 -4 15 -17
33 -29 29 -19 37 -21 85 -11 28 6 52 13 52 17 0 6 -63 52 -71 50 -2 0 -8 -2
-14 -4z m45 -37 c0 -10 -52 -10 -67 0 -7 5 4 8 27 7 22 0 40 -3 40 -7z"/>
<path d="M618 510 c-45 -14 -51 -20 -33 -40 32 -35 90 -53 150 -45 31 3 55 10
53 15 -2 4 -24 24 -51 44 -47 36 -69 41 -119 26z m45 -17 c-7 -2 -19 -2 -25 0
-7 3 -2 5 12 5 14 0 19 -2 13 -5z m55 -25 c-3 -7 -22 -14 -44 -16 -39 -2 -39
-2 -14 13 31 18 63 19 58 3z"/>
<path d="M688 463 c7 -3 16 -2 19 1 4 3 -2 6 -13 5 -11 0 -14 -3 -6 -6z"/>
<path d="M1291 476 c-25 -6 -46 -17 -48 -23 -3 -7 17 -26 44 -42 50 -32 56
-32 146 -10 20 5 37 13 37 17 0 7 -122 73 -131 71 -2 -1 -24 -6 -48 -13z m45
-32 c-22 -8 -41 -12 -44 -9 -3 2 1 7 9 9 8 2 21 7 29 9 36 12 41 4 6 -9z m21
-30 c-3 -3 -12 -4 -19 -1 -8 3 -5 6 6 6 11 1 17 -2 13 -5z"/>
<path d="M566 445 c13 -32 116 -142 187 -199 27 -21 53 -49 57 -62 5 -13 15
-24 21 -24 12 0 128 -96 142 -117 22 -34 41 -43 92 -43 l53 0 0 35 c0 30 -2
33 -18 25 -13 -7 -28 -2 -61 20 -46 31 -69 37 -69 19 0 -5 -5 -7 -11 -3 -8 5
-8 8 0 13 8 6 8 16 0 40 -9 24 -14 29 -20 19 -6 -10 -9 -10 -9 0 0 6 -6 12
-14 12 -8 0 -27 10 -43 23 -15 13 -35 26 -44 29 -9 4 -19 19 -22 35 -5 26 -37
52 -89 75 -16 7 -22 19 -20 39 1 4 -13 13 -31 20 -18 6 -46 23 -64 36 -37 27
-45 29 -37 8z"/>
<path d="M1517 431 c2 -10 27 -29 56 -42 57 -25 99 -58 92 -70 -3 -4 -1 -10 5
-14 15 -9 23 21 16 60 -7 33 -9 35 -46 33 -27 -1 -51 7 -79 25 -48 32 -51 32
-44 8z"/>
<path d="M1030 431 c-72 -14 -73 -27 -5 -67 42 -24 47 -25 102 -13 32 7 62 16
67 20 4 4 -10 17 -32 28 -22 11 -43 25 -47 31 -7 11 -32 11 -85 1z m80 -31 c0
-6 -11 -8 -25 -4 -14 3 -31 1 -39 -5 -9 -8 -16 -8 -20 -2 -7 11 14 18 57 20
15 0 27 -4 27 -9z"/>
<path d="M461 419 c-55 -11 -59 -15 -35 -34 60 -48 61 -48 126 -35 l61 13 -39
34 c-42 35 -45 36 -113 22z m72 -26 c-7 -2 -19 -2 -25 0 -7 3 -2 5 12 5 14 0
19 -2 13 -5z"/>
<path d="M755 401 c-41 -9 -42 -32 0 -58 39 -26 58 -28 121 -12 46 12 56 25
27 36 -10 3 -30 15 -45 25 -27 18 -50 21 -103 9z"/>
<path d="M1234 394 c3 -9 6 -20 6 -25 0 -5 17 -17 39 -28 21 -11 41 -27 44
-36 8 -19 47 -20 47 -1 0 24 -12 46 -21 40 -5 -3 -9 -1 -9 4 0 11 -82 62 -100
62 -7 0 -9 -7 -6 -16z"/>
<path d="M1432 382 c-29 -8 -51 -20 -49 -26 2 -6 28 -26 58 -44 45 -28 61 -32
94 -28 62 9 116 26 110 36 -8 14 -132 80 -147 79 -7 -1 -37 -8 -66 -17z m25
-28 c-3 -3 -12 -4 -19 -1 -8 3 -5 6 6 6 11 1 17 -2 13 -5z m58 -4 c3 -5 1 -10
-4 -10 -6 0 -11 5 -11 10 0 6 2 10 4 10 3 0 8 -4 11 -10z m-28 -16 c-3 -3 -12
-4 -19 -1 -8 3 -5 6 6 6 11 1 17 -2 13 -5z m58 -14 c-11 -5 -27 -9 -35 -9 -9
0 -8 4 5 9 11 5 27 9 35 9 9 0 8 -4 -5 -9z"/>
<path d="M0 365 c0 -12 114 -143 142 -164 11 -7 22 -10 26 -6 4 4 1 10 -6 12
-6 3 -10 9 -6 14 3 5 -3 12 -13 15 -10 3 -46 36 -80 73 -34 36 -63 61 -63 56z"/>
<path d="M1700 337 c0 -21 12 -30 74 -61 41 -20 86 -48 100 -61 15 -14 31 -25
37 -25 5 0 9 -4 9 -10 0 -5 10 -9 23 -8 32 3 127 -47 162 -85 18 -19 42 -33
60 -35 17 -2 44 -15 62 -28 29 -22 40 -24 100 -20 90 5 110 13 118 43 3 14 4
27 2 30 -3 2 -34 -6 -71 -17 -44 -14 -76 -19 -97 -15 -39 9 -216 100 -306 158
-24 15 -47 27 -52 27 -8 0 -21 23 -21 39 0 4 9 18 20 31 11 13 19 25 17 26 -1
2 -21 -3 -42 -11 -67 -24 -93 -19 -167 29 -28 18 -28 18 -28 -7z"/>
<path d="M1158 333 c-27 -8 -48 -20 -48 -26 0 -7 20 -23 43 -36 40 -22 48 -23
93 -12 79 19 82 25 31 60 -51 35 -53 35 -119 14z m90 -38 c2 -1 -8 -5 -22 -7
-16 -3 -27 0 -30 9 -4 10 1 12 22 7 15 -4 28 -8 30 -9z"/>
<path d="M1 163 l-1 -163 152 0 152 0 -42 43 c-44 45 -53 71 -26 81 24 9 34 7
34 -8 0 -7 7 -19 15 -26 26 -21 16 -31 -12 -13 l-28 18 30 -33 c34 -37 37 -38
28 -15 -5 13 -2 15 11 10 9 -4 34 0 54 9 20 8 55 18 77 21 22 3 46 10 53 15 9
8 12 5 12 -10 0 -28 15 -35 41 -21 19 9 21 9 16 -4 -3 -9 0 -27 6 -41 12 -25
15 -26 102 -26 l89 0 -22 23 c-21 20 -24 21 -33 5 -15 -27 -39 -22 -79 15 -19
18 -53 44 -75 58 -37 23 -44 24 -86 13 -25 -6 -69 -15 -97 -19 -49 -6 -54 -5
-83 24 -17 17 -35 31 -40 31 -5 0 -9 4 -9 8 0 10 -30 9 -46 0 -24 -15 -83 10
-120 52 -49 54 -60 70 -67 95 -2 11 -5 -53 -6 -142z"/>
<path d="M1386 304 c-10 -27 -7 -33 33 -54 22 -10 48 -30 58 -44 15 -18 23
-22 36 -14 11 6 17 5 17 -2 0 -5 10 -10 21 -10 19 0 21 4 15 31 -3 17 -6 34
-6 38 0 3 -17 7 -39 7 -26 1 -54 12 -84 32 -38 26 -46 29 -51 16z"/>
<path d="M893 293 c-35 -8 -63 -18 -63 -23 0 -15 83 -70 106 -70 36 0 124 21
124 29 0 7 -54 47 -95 72 -5 3 -38 0 -72 -8z m34 -29 c-3 -3 -12 -4 -19 -1 -8
3 -5 6 6 6 11 1 17 -2 13 -5z m43 -13 c0 -9 -24 -21 -43 -21 -6 0 -2 7 9 15
22 17 34 19 34 6z"/>
<path d="M590 286 c-30 -6 -55 -17 -55 -23 0 -6 28 -33 62 -60 l62 -50 59 11
c74 13 83 21 51 43 -13 10 -43 34 -65 55 -23 21 -45 37 -50 37 -5 -1 -34 -6
-64 -13z m10 -46 c0 -5 12 -10 26 -10 14 0 23 4 19 10 -3 6 4 10 16 10 22 0
22 0 3 -15 -25 -19 -58 -19 -74 0 -9 10 -9 15 -1 15 6 0 11 -4 11 -10z m100
-20 c0 -5 -4 -10 -10 -10 -5 0 -10 5 -10 10 0 6 5 10 10 10 6 0 10 -4 10 -10z"/>
<path d="M1645 270 c-35 -10 -60 -22 -60 -30 0 -7 32 -33 72 -57 l72 -44 59
16 c72 18 85 19 76 3 -4 -6 -3 -8 4 -5 24 16 -4 49 -76 89 -42 24 -79 44 -82
44 -3 1 -32 -6 -65 -16z m95 -47 c-14 -3 -31 -10 -37 -15 -8 -6 -13 -7 -13 -1
0 17 13 23 44 22 27 -2 28 -2 6 -6z m-5 -33 c-3 -5 -11 -10 -16 -10 -6 0 -7 5
-4 10 3 6 11 10 16 10 6 0 7 -4 4 -10z"/>
<path d="M1092 258 c-7 -7 -12 -17 -12 -22 0 -6 5 -4 10 4 8 13 10 13 10 -2 0
-17 107 -108 128 -108 6 0 12 -7 12 -15 0 -8 5 -15 12 -15 6 0 33 -18 59 -40
54 -46 57 -46 76 -22 13 16 13 16 11 -3 -2 -11 -10 -23 -18 -27 -8 -4 24 -7
71 -7 60 -1 90 3 98 12 8 11 5 13 -19 9 -36 -5 -129 43 -140 74 -6 14 -21 24
-43 28 -19 4 -47 16 -62 28 -27 21 -28 21 -41 3 -13 -18 -14 -17 -14 7 0 30
-16 49 -71 84 -44 27 -50 29 -67 12z"/>
<path d="M1293 243 c-58 -20 -56 -43 6 -76 47 -26 49 -26 105 -12 31 8 59 15
61 15 3 0 5 6 5 13 -1 14 -102 78 -122 76 -7 -1 -32 -8 -55 -16z m82 -53 c3
-5 -1 -10 -9 -10 -9 0 -16 5 -16 10 0 6 4 10 9 10 6 0 13 -4 16 -10z"/>
<path d="M358 240 c-2 -4 -25 -14 -52 -21 -27 -8 -51 -19 -53 -24 -5 -16 65
-85 86 -85 40 0 167 34 177 48 8 11 24 0 83 -61 75 -78 101 -88 101 -38 0 14
4 31 8 38 10 15 57 33 88 33 22 0 23 2 14 21 -8 14 -15 17 -23 11 -7 -6 -38
-15 -70 -22 -56 -11 -59 -11 -95 16 -20 15 -51 40 -68 56 -30 28 -32 28 -37 9
-3 -12 -13 -21 -22 -21 -9 0 -13 -4 -10 -10 11 -18 -4 -11 -37 19 -32 27 -84
45 -90 31z m40 -65 c7 -16 8 -25 1 -25 -5 0 -12 7 -15 15 -4 8 -9 13 -13 10
-4 -2 -8 2 -8 10 0 24 23 17 35 -10z m152 15 c0 -5 -2 -10 -4 -10 -3 0 -8 5
-11 10 -3 6 -1 10 4 10 6 0 11 -4 11 -10z"/>
<path d="M1584 185 c3 -10 -1 -15 -11 -15 -19 0 -7 -16 16 -22 7 -2 31 -20 53
-40 22 -21 47 -38 56 -38 17 0 91 -45 103 -62 3 -5 30 -8 60 -6 l54 3 -53 30
c-56 32 -74 64 -51 92 12 15 12 16 -6 8 -45 -20 -99 -10 -156 28 -61 40 -74
45 -65 22z"/>
<path d="M1045 185 c-5 -2 -22 -6 -37 -9 -40 -9 -35 -28 17 -65 45 -32 47 -33
98 -21 86 19 85 17 37 60 -42 36 -78 47 -115 35z m45 -43 c0 -13 -12 -22 -22
-16 -10 6 -1 24 13 24 5 0 9 -4 9 -8z"/>
<path d="M170 170 c0 -5 5 -10 10 -10 6 0 10 5 10 10 0 6 -4 10 -10 10 -5 0
-10 -4 -10 -10z"/>
<path d="M1455 141 c-27 -10 -50 -24 -50 -31 0 -8 21 -27 46 -43 l46 -28 69
14 c44 9 70 19 71 28 3 15 -95 80 -119 78 -7 0 -35 -8 -63 -18z m80 -41 c-28
-12 -47 -12 -40 0 3 6 18 10 33 9 24 0 25 -1 7 -9z"/>
<path d="M1880 136 c-30 -12 -56 -29 -58 -38 -2 -11 18 -28 62 -53 l66 -37 47
15 c27 9 60 18 76 21 15 4 27 12 27 19 -1 11 -140 98 -157 97 -5 -1 -33 -11
-63 -24z m50 -56 c-8 -5 -19 -10 -25 -10 -5 0 -3 5 5 10 8 5 20 10 25 10 6 0
3 -5 -5 -10z m45 -10 c-3 -5 -14 -10 -23 -9 -14 0 -13 2 3 9 27 11 27 11 20 0z"/>
<path d="M770 105 c-58 -15 -61 -35 -11 -72 38 -28 45 -29 93 -22 74 12 98 18
98 27 0 14 -99 82 -117 81 -10 -1 -38 -7 -63 -14z m45 -35 c-3 -5 -13 -10 -21
-10 -8 0 -12 5 -9 10 3 6 13 10 21 10 8 0 12 -4 9 -10z"/>
<path d="M1170 65 c-19 -7 -36 -20 -38 -28 -6 -27 34 -38 130 -35 l91 3 -48
38 c-51 39 -75 43 -135 22z"/>
<path d="M385 47 c-33 -12 -59 -27 -58 -32 2 -6 53 -11 120 -12 l118 -3 -37
35 c-44 41 -61 42 -143 12z"/>
<path d="M2106 43 c-6 -14 -5 -15 5 -6 7 7 10 15 7 18 -3 3 -9 -2 -12 -12z"/>
<path d="M1615 34 c-75 -28 -64 -34 60 -34 l120 0 -47 25 c-53 28 -76 30 -133
9z"/>
<path d="M2120 19 c-13 -6 -34 -8 -45 -6 -11 3 -31 1 -45 -3 -15 -5 20 -8 90
-9 105 0 113 1 90 14 -29 17 -55 18 -90 4z"/>
<path d="M935 10 c-4 -6 5 -10 20 -10 15 0 24 4 20 10 -8 13 -32 13 -40 0z"/>
</g>
</svg>
